<svg width="24" height="25" viewBox="0 0 24 25" fill="none" xmlns="http://www.w3.org/2000/svg">
<g clip-path="url(#clip0_1161_13213)">
<path fill-rule="evenodd" clip-rule="evenodd" d="M22.414 3.2629C22.85 3.30462 23.292 3.4621 23.6985 3.85878C24.4673 4.6092 24.5 5.6369 24.5 6.24211V18.0982C24.5 18.4194 24.4876 18.8006 24.3758 19.1836C24.2553 19.5961 24.0362 19.9602 23.6985 20.2899C23.3688 20.6116 23.0097 20.8252 22.6009 20.9455C22.2176 21.0582 21.836 21.0742 21.5 21.0742H8.5C8.23687 21.0742 7.98435 20.9705 7.79717 20.7856L-0.202828 12.8815C-0.39298 12.6936 -0.5 12.4375 -0.5 12.1702C-0.5 11.9028 -0.39298 11.6467 -0.202828 11.4588L7.79717 3.55474C7.98435 3.36981 8.23687 3.2661 8.5 3.2661H21.5C21.5978 3.2661 21.6836 3.26267 21.785 3.25863C21.8211 3.25719 21.8592 3.25567 21.9005 3.25419C22.0411 3.24918 22.2234 3.24466 22.414 3.2629ZM21.8912 5.25605C21.7824 5.26044 21.6419 5.2661 21.5 5.2661H8.91068L1.92282 12.1702L8.91068 19.0742H21.5C21.7895 19.0742 21.9368 19.0561 22.0365 19.0268C22.1107 19.0049 22.1889 18.9685 22.3015 18.8586C22.4062 18.7565 22.437 18.6879 22.456 18.623C22.4835 18.5285 22.5 18.3875 22.5 18.0982V6.24211C22.5 5.9573 22.4849 5.74505 22.4442 5.5775C22.4067 5.42317 22.3559 5.34315 22.3015 5.29005C22.2827 5.27171 22.2712 5.26349 22.2665 5.26052C22.2618 5.2592 22.2491 5.25626 22.2235 5.25381C22.1725 5.24893 22.1018 5.24829 21.9717 5.25292C21.9476 5.25378 21.9205 5.25487 21.8912 5.25605ZM22.2687 5.26124C22.2686 5.26124 22.2673 5.26084 22.2665 5.26052L22.2687 5.26124ZM10.7886 7.5153C11.1768 7.12243 11.81 7.11861 12.2028 7.50677L15 10.2704L17.7972 7.50677C18.19 7.11861 18.8232 7.12243 19.2114 7.5153C19.5995 7.90817 19.5957 8.54133 19.2028 8.92949L16.4228 11.6762L19.2028 14.4228C19.5957 14.811 19.5995 15.4441 19.2114 15.837C18.8232 16.2299 18.19 16.2337 17.7972 15.8455L15 13.0819L12.2028 15.8455C11.81 16.2337 11.1768 16.2299 10.7886 15.837C10.4005 15.4441 10.4043 14.811 10.7972 14.4228L13.5772 11.6762L10.7972 8.92949C10.4043 8.54133 10.4005 7.90817 10.7886 7.5153Z" fill="white"/>
</g>
<defs>
<clipPath id="clip0_1161_13213">
<rect width="24" height="24" fill="white" transform="translate(0 0.75)"/>
</clipPath>
</defs>
</svg>
