<svg width="24" height="25" viewBox="0 0 24 25" fill="none" xmlns="http://www.w3.org/2000/svg">
<g clip-path="url(#clip0_1160_7970)">
<path fill-rule="evenodd" clip-rule="evenodd" d="M22.414 3.26314C22.85 3.30487 23.292 3.46234 23.6985 3.85902C24.4673 4.60945 24.5 5.63715 24.5 6.24236V18.0984C24.5 18.4197 24.4876 18.8008 24.3758 19.1838C24.2553 19.5964 24.0362 19.9605 23.6985 20.2901C23.3688 20.6119 23.0097 20.8255 22.6009 20.9457C22.2176 21.0585 21.836 21.0745 21.5 21.0745H8.5C8.23687 21.0745 7.98435 20.9707 7.79717 20.7858L-0.202828 12.8818C-0.39298 12.6939 -0.5 12.4377 -0.5 12.1704C-0.5 11.9031 -0.39298 11.6469 -0.202828 11.459L7.79717 3.55498C7.98435 3.37005 8.23687 3.26634 8.5 3.26634H21.5C21.5978 3.26634 21.6836 3.26292 21.785 3.25887C21.8211 3.25743 21.8592 3.25591 21.9005 3.25444C22.0411 3.24943 22.2234 3.24491 22.414 3.26314ZM21.8912 5.2563C21.7824 5.26068 21.6419 5.26634 21.5 5.26634H8.91068L1.92282 12.1704L8.91068 19.0745H21.5C21.7895 19.0745 21.9368 19.0563 22.0365 19.027C22.1107 19.0052 22.1889 18.9688 22.3015 18.8588C22.4062 18.7567 22.437 18.6881 22.456 18.6232C22.4835 18.5288 22.5 18.3878 22.5 18.0984V6.24236C22.5 5.95754 22.4849 5.74529 22.4442 5.57774C22.4067 5.42342 22.3559 5.34339 22.3015 5.29029C22.2827 5.27195 22.2712 5.26373 22.2665 5.26077C22.2618 5.25944 22.2491 5.2565 22.2235 5.25405C22.1725 5.24917 22.1018 5.24853 21.9717 5.25317C21.9476 5.25403 21.9205 5.25512 21.8912 5.2563ZM22.2687 5.26148C22.2686 5.26148 22.2673 5.26108 22.2665 5.26077L22.2687 5.26148ZM10.7886 7.51554C11.1768 7.12267 11.81 7.11885 12.2028 7.50701L15 10.2706L17.7972 7.50701C18.19 7.11885 18.8232 7.12267 19.2114 7.51554C19.5995 7.90842 19.5957 8.54157 19.2028 8.92973L16.4228 11.6764L19.2028 14.4231C19.5957 14.8112 19.5995 15.4444 19.2114 15.8372C18.8232 16.2301 18.19 16.2339 17.7972 15.8458L15 13.0822L12.2028 15.8458C11.81 16.2339 11.1768 16.2301 10.7886 15.8372C10.4005 15.4444 10.4043 14.8112 10.7972 14.4231L13.5772 11.6764L10.7972 8.92973C10.4043 8.54157 10.4005 7.90842 10.7886 7.51554Z" fill="#202325"/>
</g>
<defs>
<clipPath id="clip0_1160_7970">
<rect width="24" height="24" fill="white" transform="translate(0 0.75)"/>
</clipPath>
</defs>
</svg>
