<svg width="44" height="44" viewBox="0 0 44 44" fill="none" xmlns="http://www.w3.org/2000/svg">
<path d="M42.1668 32.9998H36.6668V27.4998H33.0002V32.9998H27.5002V36.6665H33.0002V42.1665H36.6668V36.6665H42.1668M11.0002 3.6665C10.0277 3.6665 9.09507 4.05281 8.40744 4.74045C7.7198 5.42808 7.3335 6.36071 7.3335 7.33317V36.6665C7.3335 38.7015 8.96516 40.3332 11.0002 40.3332H25.3185C24.6585 39.1965 24.2002 37.9498 23.9802 36.6665H11.0002V7.33317H23.8335V16.4998H33.0002V23.9798C33.6052 23.8882 34.2285 23.8332 34.8335 23.8332C35.4568 23.8332 36.0618 23.8882 36.6668 23.9798V14.6665L25.6668 3.6665M14.6668 21.9998V25.6665H29.3335V21.9998M14.6668 29.3332V32.9998H23.8335V29.3332H14.6668Z" fill="#357DD5"/>
</svg>
