<svg width="16" height="16" viewBox="0 0 16 16" fill="none" xmlns="http://www.w3.org/2000/svg">
<path fill-rule="evenodd" clip-rule="evenodd" d="M5.83913 0.666504H10.1609C10.6975 0.666496 11.1404 0.666489 11.5012 0.695967C11.8759 0.726584 12.2204 0.792293 12.544 0.957154C13.0457 1.21282 13.4537 1.62076 13.7094 2.12253C13.8742 2.44609 13.9399 2.79056 13.9705 3.16529C14 3.52609 14 3.96902 14 4.50569V6.99984C14 7.36803 13.7015 7.6665 13.3333 7.6665C12.9651 7.6665 12.6667 7.36803 12.6667 6.99984V4.53317C12.6667 3.96212 12.6661 3.57392 12.6416 3.27386C12.6178 2.98159 12.5745 2.83212 12.5213 2.72785C12.3935 2.47697 12.1895 2.27299 11.9387 2.14516C11.8344 2.09204 11.6849 2.04875 11.3926 2.02487C11.0926 2.00036 10.7044 1.99984 10.1333 1.99984H5.86667C5.29561 1.99984 4.90742 2.00036 4.60736 2.02487C4.31508 2.04875 4.16561 2.09204 4.06135 2.14516C3.81046 2.27299 3.60649 2.47697 3.47866 2.72785C3.42553 2.83212 3.38225 2.98159 3.35837 3.27386C3.33385 3.57392 3.33333 3.96212 3.33333 4.53317V11.4665C3.33333 12.0376 3.33385 12.4258 3.35837 12.7258C3.38225 13.0181 3.42553 13.1676 3.47866 13.2718C3.60649 13.5227 3.81046 13.7267 4.06135 13.8545C4.16561 13.9076 4.31508 13.9509 4.60736 13.9748C4.90742 13.9993 5.29561 13.9998 5.86667 13.9998H8C8.36819 13.9998 8.66667 14.2983 8.66667 14.6665C8.66667 15.0347 8.36819 15.3332 8 15.3332H5.83918C5.30251 15.3332 4.85959 15.3332 4.49878 15.3037C4.12405 15.2731 3.77958 15.2074 3.45603 15.0425C2.95426 14.7869 2.54631 14.3789 2.29065 13.8771C2.12579 13.5536 2.06008 13.2091 2.02946 12.8344C1.99998 12.4736 1.99999 12.0307 2 11.494V4.50564C1.99999 3.96899 1.99998 3.52608 2.02946 3.16529C2.06008 2.79056 2.12579 2.44609 2.29065 2.12253C2.54631 1.62076 2.95426 1.21282 3.45603 0.957154C3.77958 0.792293 4.12405 0.726584 4.49878 0.695967C4.85958 0.666489 5.30249 0.666496 5.83913 0.666504ZM4.66667 4.6665C4.66667 4.29831 4.96514 3.99984 5.33333 3.99984H10.6667C11.0349 3.99984 11.3333 4.29831 11.3333 4.6665C11.3333 5.03469 11.0349 5.33317 10.6667 5.33317H5.33333C4.96514 5.33317 4.66667 5.03469 4.66667 4.6665ZM4.66667 7.33317C4.66667 6.96498 4.96514 6.6665 5.33333 6.6665H9.33333C9.70152 6.6665 10 6.96498 10 7.33317C10 7.70136 9.70152 7.99984 9.33333 7.99984H5.33333C4.96514 7.99984 4.66667 7.70136 4.66667 7.33317ZM4.66667 9.99984C4.66667 9.63165 4.96514 9.33317 5.33333 9.33317H6.66667C7.03486 9.33317 7.33333 9.63165 7.33333 9.99984C7.33333 10.368 7.03486 10.6665 6.66667 10.6665H5.33333C4.96514 10.6665 4.66667 10.368 4.66667 9.99984Z" fill="#025CCA"/>
<path fill-rule="evenodd" clip-rule="evenodd" d="M13.0715 8.91648C13.3382 8.64969 13.7001 8.49981 14.0774 8.49981C14.4547 8.49981 14.8165 8.64969 15.0833 8.91648C15.3501 9.18327 15.5 9.54512 15.5 9.92242C15.5 10.2997 15.3501 10.6616 15.0833 10.9284L14.1611 11.8506C14.159 11.8527 14.1569 11.8548 14.1548 11.8569L11.6583 14.3534C11.5646 14.4471 11.4374 14.4998 11.3048 14.4998H10C9.72386 14.4998 9.5 14.2759 9.5 13.9998V12.695C9.5 12.5624 9.55268 12.4353 9.64645 12.3415L12.0545 9.93342C12.0566 9.9313 12.0587 9.92919 12.0608 9.92711L13.0715 8.91648ZM12.4342 10.968L10.5 12.9021V13.4998H11.0977L13.0727 11.5248L12.4342 10.968ZM13.7814 10.816L13.143 10.2592L13.7786 9.62359C13.8578 9.54433 13.9653 9.49981 14.0774 9.49981C14.1895 9.49981 14.297 9.54433 14.3762 9.62359C14.4555 9.70284 14.5 9.81033 14.5 9.92242C14.5 10.0345 14.4555 10.142 14.3762 10.2212L13.7814 10.816Z" fill="#025CCA"/>
</svg>
