<svg width="14" height="16" viewBox="0 0 14 16" fill="none" xmlns="http://www.w3.org/2000/svg">
<path fill-rule="evenodd" clip-rule="evenodd" d="M3.83913 0.666504H8.16087C8.69751 0.666496 9.14042 0.666489 9.50122 0.695967C9.87595 0.726584 10.2204 0.792293 10.544 0.957154C11.0457 1.21282 11.4537 1.62076 11.7094 2.12253C11.8742 2.44609 11.9399 2.79056 11.9705 3.16529C12 3.52609 12 3.96902 12 4.50569V6.99984C12 7.36803 11.7015 7.6665 11.3333 7.6665C10.9651 7.6665 10.6667 7.36803 10.6667 6.99984V4.53317C10.6667 3.96212 10.6661 3.57392 10.6416 3.27386C10.6178 2.98159 10.5745 2.83212 10.5213 2.72785C10.3935 2.47697 10.1895 2.27299 9.93865 2.14516C9.83439 2.09204 9.68492 2.04875 9.39264 2.02487C9.09258 2.00036 8.70439 1.99984 8.13333 1.99984H3.86667C3.29561 1.99984 2.90742 2.00036 2.60736 2.02487C2.31508 2.04875 2.16561 2.09204 2.06135 2.14516C1.81046 2.27299 1.60649 2.47697 1.47866 2.72785C1.42553 2.83212 1.38225 2.98159 1.35837 3.27386C1.33385 3.57392 1.33333 3.96212 1.33333 4.53317V11.4665C1.33333 12.0376 1.33385 12.4258 1.35837 12.7258C1.38225 13.0181 1.42553 13.1676 1.47866 13.2718C1.60649 13.5227 1.81046 13.7267 2.06135 13.8545C2.16561 13.9076 2.31508 13.9509 2.60736 13.9748C2.90742 13.9993 3.29561 13.9998 3.86667 13.9998H6C6.36819 13.9998 6.66667 14.2983 6.66667 14.6665C6.66667 15.0347 6.36819 15.3332 6 15.3332H3.83918C3.30251 15.3332 2.85959 15.3332 2.49878 15.3037C2.12405 15.2731 1.77958 15.2074 1.45603 15.0425C0.95426 14.7869 0.546312 14.3789 0.29065 13.8771C0.125789 13.5536 0.0600798 13.2091 0.029463 12.8344C-1.52091e-05 12.4736 -8.21607e-06 12.0307 2.87527e-07 11.494V4.50564C-8.21607e-06 3.96899 -1.52091e-05 3.52608 0.029463 3.16529C0.0600798 2.79056 0.125789 2.44609 0.29065 2.12253C0.546312 1.62076 0.95426 1.21282 1.45603 0.957154C1.77958 0.792293 2.12405 0.726584 2.49878 0.695967C2.85958 0.666489 3.30249 0.666496 3.83913 0.666504ZM2.66667 4.6665C2.66667 4.29831 2.96514 3.99984 3.33333 3.99984H8.66667C9.03486 3.99984 9.33333 4.29831 9.33333 4.6665C9.33333 5.03469 9.03486 5.33317 8.66667 5.33317H3.33333C2.96514 5.33317 2.66667 5.03469 2.66667 4.6665ZM2.66667 7.33317C2.66667 6.96498 2.96514 6.6665 3.33333 6.6665H7.33333C7.70152 6.6665 8 6.96498 8 7.33317C8 7.70136 7.70152 7.99984 7.33333 7.99984H3.33333C2.96514 7.99984 2.66667 7.70136 2.66667 7.33317ZM2.66667 9.99984C2.66667 9.63165 2.96514 9.33317 3.33333 9.33317H4.66667C5.03486 9.33317 5.33333 9.63165 5.33333 9.99984C5.33333 10.368 5.03486 10.6665 4.66667 10.6665H3.33333C2.96514 10.6665 2.66667 10.368 2.66667 9.99984Z" fill="white"/>
<path fill-rule="evenodd" clip-rule="evenodd" d="M11.0715 8.91648C11.3382 8.64969 11.7001 8.49981 12.0774 8.49981C12.4547 8.49981 12.8165 8.64969 13.0833 8.91648C13.3501 9.18327 13.5 9.54512 13.5 9.92242C13.5 10.2997 13.3501 10.6616 13.0833 10.9284L12.1611 11.8506C12.159 11.8527 12.1569 11.8548 12.1548 11.8569L9.65832 14.3534C9.56455 14.4471 9.43737 14.4998 9.30477 14.4998H8C7.72386 14.4998 7.5 14.2759 7.5 13.9998V12.695C7.5 12.5624 7.55268 12.4353 7.64645 12.3415L10.0545 9.93342C10.0566 9.9313 10.0587 9.92919 10.0608 9.92711L11.0715 8.91648ZM10.4342 10.968L8.5 12.9021V13.4998H9.09766L11.0727 11.5248L10.4342 10.968ZM11.7814 10.816L11.143 10.2592L11.7786 9.62359C11.8578 9.54433 11.9653 9.49981 12.0774 9.49981C12.1895 9.49981 12.297 9.54433 12.3762 9.62359C12.4555 9.70284 12.5 9.81033 12.5 9.92242C12.5 10.0345 12.4555 10.142 12.3762 10.2212L11.7814 10.816Z" fill="white"/>
</svg>
