<svg width="16" height="16" viewBox="0 0 16 16" fill="none" xmlns="http://www.w3.org/2000/svg">
<path d="M6 2.00001V0.666672H10V2.00001H6ZM7.33333 9.33334H8.66667V5.33334H7.33333V9.33334ZM8 14.6667C7.17778 14.6667 6.40267 14.5082 5.67467 14.1913C4.94667 13.8744 4.31067 13.444 3.76667 12.9C3.22222 12.3556 2.79156 11.7193 2.47467 10.9913C2.15778 10.2633 1.99956 9.48845 2 8.66667C2 7.84445 2.15845 7.06934 2.47533 6.34134C2.79222 5.61334 3.22267 4.97734 3.76667 4.43334C4.31111 3.88889 4.94733 3.45823 5.67533 3.14134C6.40333 2.82445 7.17822 2.66623 8 2.66667C8.68889 2.66667 9.35 2.77778 9.98333 3.00001C10.6167 3.22223 11.2111 3.54445 11.7667 3.96667L12.7 3.03334L13.6333 3.96667L12.7 4.9C13.1222 5.45556 13.4444 6.05 13.6667 6.68334C13.8889 7.31667 14 7.97778 14 8.66667C14 9.48889 13.8416 10.264 13.5247 10.992C13.2078 11.72 12.7773 12.356 12.2333 12.9C11.6889 13.4444 11.0527 13.8751 10.3247 14.192C9.59667 14.5089 8.82178 14.6671 8 14.6667ZM8 13.3333C9.28889 13.3333 10.3889 12.8778 11.3 11.9667C12.2111 11.0556 12.6667 9.95556 12.6667 8.66667C12.6667 7.37778 12.2111 6.27778 11.3 5.36667C10.3889 4.45556 9.28889 4.00001 8 4C6.71111 4 5.61111 4.45556 4.7 5.36667C3.78889 6.27778 3.33333 7.37778 3.33333 8.66667C3.33333 9.95556 3.78889 11.0556 4.7 11.9667C5.61111 12.8778 6.71111 13.3333 8 13.3333Z" fill="#202325"/>
</svg>
