<svg width="16" height="16" viewBox="0 0 16 16" fill="none" xmlns="http://www.w3.org/2000/svg">
<path fill-rule="evenodd" clip-rule="evenodd" d="M5.83913 1.33334H10.1609C10.6975 1.33334 11.1404 1.33333 11.5012 1.36281C11.8759 1.39342 12.2204 1.45913 12.544 1.62399C13.0457 1.87966 13.4537 2.2876 13.7094 2.78937C13.8742 3.11293 13.9399 3.4574 13.9705 3.83213C14 4.19292 14 4.63582 14 5.17246V14C14 14.2508 13.8593 14.4803 13.6359 14.5941C13.4124 14.7079 13.144 14.6867 12.9412 14.5392L11.5193 13.505L10.2498 14.5206C10.0152 14.7082 9.68415 14.7158 9.44122 14.5392L8 13.491L6.55878 14.5392C6.31585 14.7158 5.98477 14.7082 5.7502 14.5206L4.48074 13.505L3.05878 14.5392C2.85599 14.6867 2.5876 14.7079 2.36415 14.5941C2.1407 14.4803 2 14.2508 2 14L2 5.17248C1.99999 4.63583 1.99998 4.19292 2.02946 3.83213C2.06008 3.4574 2.12579 3.11293 2.29065 2.78937C2.54631 2.2876 2.95426 1.87966 3.45603 1.62399C3.77958 1.45913 4.12405 1.39342 4.49878 1.36281C4.85958 1.33333 5.30249 1.33334 5.83913 1.33334ZM4.60736 2.69171C4.31508 2.71559 4.16561 2.75888 4.06135 2.812C3.81046 2.93983 3.60649 3.14381 3.47866 3.39469C3.42553 3.49896 3.38225 3.64843 3.35837 3.9407C3.33385 4.24076 3.33333 4.62896 3.33333 5.20001V12.6908L4.10789 12.1275C4.35082 11.9508 4.6819 11.9584 4.91646 12.1461L6.18593 13.1617L7.60789 12.1275C7.84165 11.9575 8.15835 11.9575 8.39212 12.1275L9.81407 13.1617L11.0835 12.1461C11.3181 11.9584 11.6492 11.9508 11.8921 12.1275L12.6667 12.6908V5.20001C12.6667 4.62896 12.6661 4.24076 12.6416 3.9407C12.6178 3.64843 12.5745 3.49896 12.5213 3.39469C12.3935 3.14381 12.1895 2.93983 11.9387 2.812C11.8344 2.75888 11.6849 2.71559 11.3926 2.69171C11.0926 2.6672 10.7044 2.66668 10.1333 2.66668H5.86667C5.29561 2.66668 4.90742 2.6672 4.60736 2.69171ZM10.8047 4.86194C11.0651 5.12229 11.0651 5.5444 10.8047 5.80475L7.80474 8.80475C7.54439 9.0651 7.12228 9.0651 6.86193 8.80475L5.5286 7.47142C5.26825 7.21107 5.26825 6.78896 5.5286 6.52861C5.78895 6.26826 6.21106 6.26826 6.47141 6.52861L7.33333 7.39053L9.86193 4.86194C10.1223 4.60159 10.5444 4.60159 10.8047 4.86194Z" fill="#202325"/>
</svg>
