<svg width="16" height="16" viewBox="0 0 16 16" fill="none" xmlns="http://www.w3.org/2000/svg">
<path fill-rule="evenodd" clip-rule="evenodd" d="M10.3046 4.52859C10.5649 4.78894 10.5649 5.21105 10.3046 5.4714L4.30457 11.4714C4.04423 11.7318 3.62212 11.7318 3.36177 11.4714L0.861766 8.9714C0.601417 8.71105 0.601417 8.28894 0.861766 8.02859C1.12212 7.76824 1.54423 7.76824 1.80458 8.02859L3.83317 10.0572L9.36177 4.52859C9.62212 4.26824 10.0442 4.26824 10.3046 4.52859ZM14.8046 4.52859C15.0649 4.78894 15.0649 5.21105 14.8046 5.4714L8.80457 11.4714C8.54423 11.7318 8.12212 11.7318 7.86177 11.4714L6.86177 10.4714C6.60142 10.2111 6.60142 9.78894 6.86177 9.52859C7.12212 9.26824 7.54423 9.26824 7.80457 9.52859L8.33317 10.0572L13.8618 4.52859C14.1221 4.26824 14.5442 4.26824 14.8046 4.52859Z" fill="#286B4A"/>
</svg>
