<svg width="25" height="24" viewBox="0 0 25 24" fill="none" xmlns="http://www.w3.org/2000/svg">
<path fill-rule="evenodd" clip-rule="evenodd" d="M2.25 12C2.25 6.48 6.73 2 12.25 2C17.77 2 22.25 6.48 22.25 12C22.25 17.52 17.77 22 12.25 22C6.73 22 2.25 17.52 2.25 12ZM4.25 12C4.25 16.42 7.83 20 12.25 20C16.67 20 20.25 16.42 20.25 12C20.25 7.58 16.67 4 12.25 4C7.83 4 4.25 7.58 4.25 12ZM8.75 12C8.75 12.8284 8.07843 13.5 7.25 13.5C6.42157 13.5 5.75 12.8284 5.75 12C5.75 11.1716 6.42157 10.5 7.25 10.5C8.07843 10.5 8.75 11.1716 8.75 12ZM12.25 13.5C13.0784 13.5 13.75 12.8284 13.75 12C13.75 11.1716 13.0784 10.5 12.25 10.5C11.4216 10.5 10.75 11.1716 10.75 12C10.75 12.8284 11.4216 13.5 12.25 13.5ZM18.75 12C18.75 12.8284 18.0784 13.5 17.25 13.5C16.4216 13.5 15.75 12.8284 15.75 12C15.75 11.1716 16.4216 10.5 17.25 10.5C18.0784 10.5 18.75 11.1716 18.75 12Z" fill="#797B7C"/>
</svg>
