<svg width="44" height="44" viewBox="0 0 44 44" fill="none" xmlns="http://www.w3.org/2000/svg">
<path d="M42.1673 32.9998H36.6673V27.4998H33.0007V32.9998H27.5007V36.6665H33.0007V42.1665H36.6673V36.6665H42.1673M11.0007 3.6665C10.0282 3.6665 9.09556 4.05281 8.40793 4.74045C7.72029 5.42808 7.33398 6.36071 7.33398 7.33317V36.6665C7.33398 38.7015 8.96565 40.3332 11.0007 40.3332H25.319C24.659 39.1965 24.2007 37.9498 23.9807 36.6665H11.0007V7.33317H23.834V16.4998H33.0007V23.9798C33.6057 23.8882 34.229 23.8332 34.834 23.8332C35.4573 23.8332 36.0623 23.8882 36.6673 23.9798V14.6665L25.6673 3.6665M14.6673 21.9998V25.6665H29.334V21.9998M14.6673 29.3332V32.9998H23.834V29.3332H14.6673Z" fill="#357DD5"/>
</svg>
