<svg width="24" height="24" viewBox="0 0 24 24" fill="none" xmlns="http://www.w3.org/2000/svg">
<path fill-rule="evenodd" clip-rule="evenodd" d="M18.3535 5.64655C16.5179 3.81314 13.9165 2.75583 11.0561 3.04828C6.92313 3.46445 3.52215 6.81634 3.06043 10.9443C2.44105 16.3996 6.66411 21 11.9908 21C15.5832 21 18.6689 18.8966 20.1103 15.8709C20.4707 15.1173 19.9302 14.2512 19.0968 14.2512C18.6801 14.2512 18.286 14.4762 18.1058 14.8474C16.8332 17.5806 13.7814 19.3128 10.448 18.5704C7.94792 18.0193 5.93212 15.9834 5.40283 13.4864C4.45686 9.12217 7.779 5.25288 11.9908 5.25288C13.8602 5.25288 15.5269 6.02898 16.7432 7.25501L15.0427 8.95345C14.3332 9.66207 14.8287 10.8768 15.831 10.8768H19.8738C20.4932 10.8768 21 10.3707 21 9.75205V5.71404C21 4.71297 19.7838 4.20682 19.0743 4.91544L18.3535 5.64655Z" fill="#202325"/>
</svg>
