<svg width="32" height="32" viewBox="0 0 32 32" fill="none" xmlns="http://www.w3.org/2000/svg">
<path d="M25.3065 22.6665H2.6665V25.3332H29.3332V22.6665H25.3065ZM27.9998 21.3332C27.6398 15.9065 23.6665 11.4665 18.4532 10.3865C18.5865 10.0665 18.6665 9.7065 18.6665 9.33317C18.6665 7.8665 17.4665 6.6665 15.9998 6.6665C14.5332 6.6665 13.3332 7.8665 13.3332 9.33317C13.3332 9.7065 13.4132 10.0665 13.5465 10.3865C8.33317 11.4665 4.35984 15.9065 3.99984 21.3332H27.9998ZM15.9998 12.7732C19.9332 12.7732 23.2932 15.2132 24.6665 18.6532H7.33317C8.7065 15.2132 12.0665 12.7732 15.9998 12.7732Z" fill="white"/>
</svg>
