<svg width="24" height="24" viewBox="0 0 24 24" fill="none" xmlns="http://www.w3.org/2000/svg">
<path fill-rule="evenodd" clip-rule="evenodd" d="M5.07692 10.6154C5.07692 7.55658 7.55658 5.07692 10.6154 5.07692C13.6742 5.07692 16.1538 7.55658 16.1538 10.6154C16.1538 13.6742 13.6742 16.1538 10.6154 16.1538C7.55658 16.1538 5.07692 13.6742 5.07692 10.6154ZM10.6154 3C6.40952 3 3 6.40952 3 10.6154C3 14.8212 6.40952 18.2308 10.6154 18.2308C12.3439 18.2308 13.9379 17.6549 15.216 16.6846L19.2272 20.6958C19.6328 21.1014 20.2903 21.1014 20.6958 20.6958C21.1014 20.2903 21.1014 19.6328 20.6958 19.2272L16.6846 15.216C17.6549 13.9379 18.2308 12.3439 18.2308 10.6154C18.2308 6.40952 14.8212 3 10.6154 3Z" fill="white"/>
</svg>
