<svg width="16" height="16" viewBox="0 0 16 16" fill="none" xmlns="http://www.w3.org/2000/svg">
<path fill-rule="evenodd" clip-rule="evenodd" d="M14.2735 7.71992L8.2735 1.71992C8.0335 1.47992 7.70016 1.33325 7.3335 1.33325H2.66683C1.9335 1.33325 1.3335 1.93325 1.3335 2.66659V7.33325C1.3335 7.69992 1.48016 8.03325 1.72683 8.27992L7.72683 14.2799C7.96683 14.5199 8.30016 14.6666 8.66683 14.6666C9.0335 14.6666 9.36683 14.5199 9.60683 14.2733L14.2735 9.60659C14.5202 9.36659 14.6668 9.03325 14.6668 8.66659C14.6668 8.29992 14.5135 7.95992 14.2735 7.71992ZM3.66683 4.66659C3.1135 4.66659 2.66683 4.21992 2.66683 3.66659C2.66683 3.11325 3.1135 2.66659 3.66683 2.66659C4.22016 2.66659 4.66683 3.11325 4.66683 3.66659C4.66683 4.21992 4.22016 4.66659 3.66683 4.66659Z" fill="white"/>
</svg>
