<svg width="25" height="24" viewBox="0 0 25 24" fill="none" xmlns="http://www.w3.org/2000/svg">
<path fill-rule="evenodd" clip-rule="evenodd" d="M8.75 8H4.75V4H8.75V8ZM7.75 5H5.75V7H7.75V5ZM14.75 20H10.75V16H14.75V20ZM13.75 17H11.75V19H13.75V17ZM8.75 20H4.75V16H8.75V20ZM7.75 17H5.75V19H7.75V17ZM8.75 14H4.75V10H8.75V14ZM7.75 11H5.75V13H7.75V11ZM14.75 14H10.75V10H14.75V14ZM13.75 11H11.75V13H13.75V11ZM16.75 8V4H20.75V8H16.75ZM19.75 7V5H17.75V7H19.75ZM14.75 8H10.75V4H14.75V8ZM13.75 5H11.75V7H13.75V5ZM20.75 14H16.75V10H20.75V14ZM19.75 11H17.75V13H19.75V11ZM20.75 20H16.75V16H20.75V20ZM19.75 17H17.75V19H19.75V17Z" fill="#636566"/>
</svg>
