<svg width="174" height="42" viewBox="0 0 174 42" fill="none" xmlns="http://www.w3.org/2000/svg">
<path d="M173.574 36.7234C172.665 37.4095 171.662 37.7525 170.567 37.7525C169.804 37.7525 169.119 37.5846 168.512 37.2487C167.906 36.9129 167.427 36.4572 167.074 35.8815C166.727 35.301 166.553 34.6462 166.553 33.917C166.553 33.2165 166.715 32.5929 167.038 32.046C167.36 31.4943 167.803 31.0601 168.366 30.7435C168.928 30.4269 169.566 30.2686 170.28 30.2686C171.014 30.2686 171.66 30.4413 172.217 30.7867C172.78 31.1321 173.217 31.6118 173.53 32.2259C173.843 32.84 174 33.55 174 34.3559V34.5862H167.859C167.947 35.0084 168.123 35.3754 168.388 35.6872C168.657 35.999 168.989 36.2413 169.385 36.414C169.782 36.5867 170.224 36.6731 170.713 36.6731C171.554 36.6731 172.322 36.402 173.017 35.8599L173.574 36.7234ZM167.815 33.5787H172.863C172.809 33.1326 172.667 32.744 172.437 32.413C172.212 32.0772 171.919 31.8157 171.557 31.6286C171.2 31.4415 170.796 31.348 170.346 31.348C169.892 31.348 169.481 31.4415 169.114 31.6286C168.752 31.8157 168.456 32.0772 168.226 32.413C168.001 32.744 167.864 33.1326 167.815 33.5787Z" fill="#025CCA"/>
<path d="M165.371 36.5723C165.014 36.9513 164.591 37.2439 164.102 37.4502C163.613 37.6517 163.087 37.7525 162.524 37.7525C161.796 37.7525 161.14 37.5894 160.558 37.2631C159.981 36.9369 159.524 36.4908 159.186 35.9247C158.854 35.3586 158.688 34.7205 158.688 34.0105C158.688 33.2957 158.854 32.6577 159.186 32.0964C159.524 31.5303 159.981 31.0841 160.558 30.7579C161.14 30.4317 161.796 30.2686 162.524 30.2686C163.082 30.2686 163.605 30.3693 164.094 30.5708C164.584 30.7723 165.007 31.0625 165.364 31.4415L164.645 32.1827C164.385 31.9141 164.075 31.7078 163.713 31.5638C163.356 31.4199 162.977 31.348 162.576 31.348C162.062 31.348 161.605 31.4631 161.204 31.6934C160.808 31.9189 160.495 32.2307 160.265 32.6289C160.04 33.027 159.927 33.4852 159.927 34.0033C159.927 34.5214 160.04 34.982 160.265 35.385C160.495 35.7879 160.808 36.1046 161.204 36.3348C161.605 36.5603 162.062 36.6731 162.576 36.6731C162.977 36.6731 163.358 36.6011 163.72 36.4572C164.082 36.3085 164.39 36.1022 164.645 35.8383L165.371 36.5723Z" fill="#025CCA"/>
<path d="M157.064 37.6085H156.03L155.949 36.6587C155.68 36.9993 155.338 37.2679 154.922 37.4646C154.506 37.6565 154.042 37.7525 153.528 37.7525C153 37.7525 152.528 37.6517 152.112 37.4502C151.697 37.2439 151.369 36.9633 151.129 36.6083C150.894 36.2533 150.777 35.8503 150.777 35.3994C150.777 34.9244 150.904 34.507 151.159 34.1472C151.418 33.7826 151.768 33.4972 152.208 33.2909C152.653 33.0846 153.157 32.9815 153.719 32.9815C154.086 32.9815 154.46 33.027 154.842 33.1182C155.223 33.2046 155.563 33.3245 155.861 33.478V33.1758C155.861 32.792 155.763 32.4658 155.568 32.1971C155.372 31.9237 155.111 31.715 154.783 31.571C154.455 31.4223 154.093 31.348 153.697 31.348C153.355 31.348 153.005 31.4103 152.648 31.5351C152.291 31.655 151.948 31.8421 151.621 32.0964L151.225 31.0817C151.65 30.8131 152.098 30.6116 152.567 30.4772C153.037 30.3381 153.501 30.2686 153.961 30.2686C154.597 30.2686 155.145 30.3957 155.604 30.6499C156.069 30.8994 156.429 31.2568 156.683 31.7222C156.937 32.1827 157.064 32.7296 157.064 33.3629V37.6085ZM153.741 36.6731C154.118 36.6731 154.462 36.5963 154.775 36.4428C155.089 36.2893 155.343 36.0686 155.538 35.7807C155.734 35.4881 155.842 35.1427 155.861 34.7445V34.6222C155.592 34.4159 155.289 34.2576 154.952 34.1472C154.619 34.0321 154.279 33.9745 153.932 33.9745C153.389 33.9745 152.934 34.1041 152.567 34.3631C152.205 34.6222 152.024 34.9508 152.024 35.349C152.024 35.5984 152.098 35.8239 152.244 36.0254C152.396 36.2269 152.601 36.3852 152.861 36.5004C153.12 36.6155 153.413 36.6731 153.741 36.6731Z" fill="#025CCA"/>
<path d="M142.838 41.2066H141.635V30.4125H142.706L142.764 31.4631C143.107 31.0937 143.52 30.8035 144.004 30.5924C144.488 30.3765 145.019 30.2686 145.596 30.2686C146.315 30.2686 146.958 30.4317 147.526 30.7579C148.098 31.0841 148.548 31.5303 148.876 32.0964C149.208 32.6577 149.375 33.2957 149.375 34.0105C149.375 34.7205 149.208 35.3586 148.876 35.9247C148.548 36.4908 148.098 36.9369 147.526 37.2631C146.958 37.5894 146.315 37.7525 145.596 37.7525C145.044 37.7525 144.53 37.6541 144.056 37.4574C143.586 37.2607 143.18 36.9873 142.838 36.6371V41.2066ZM145.501 36.6731C146.014 36.6731 146.469 36.5603 146.865 36.3348C147.262 36.1046 147.57 35.7879 147.79 35.385C148.015 34.982 148.127 34.5214 148.127 34.0033C148.127 33.4804 148.015 33.0199 147.79 32.6217C147.565 32.2187 147.254 31.9021 146.858 31.6718C146.467 31.4415 146.017 31.3264 145.508 31.3264C145.024 31.3264 144.586 31.4319 144.195 31.643C143.809 31.8541 143.496 32.1443 143.256 32.5137C143.016 32.8783 142.877 33.2957 142.838 33.7658V34.2552C142.877 34.7253 143.014 35.1427 143.249 35.5073C143.483 35.8719 143.794 36.1573 144.18 36.3636C144.572 36.5699 145.012 36.6731 145.501 36.6731Z" fill="#025CCA"/>
<path d="M134.663 36.9825L134.978 35.8743C135.154 36.0374 135.355 36.1789 135.58 36.2989C135.805 36.4188 136.042 36.5123 136.291 36.5795C136.541 36.6419 136.793 36.6731 137.047 36.6731C137.502 36.6731 137.869 36.5747 138.147 36.378C138.426 36.1813 138.566 35.9247 138.566 35.608C138.566 35.3778 138.492 35.1883 138.346 35.0395C138.204 34.886 138.015 34.7541 137.781 34.6438C137.546 34.5334 137.294 34.4279 137.025 34.3271C136.697 34.2024 136.372 34.0609 136.049 33.9026C135.726 33.7443 135.457 33.5356 135.242 33.2765C135.032 33.0175 134.927 32.6768 134.927 32.2547C134.927 31.8517 135.029 31.5015 135.235 31.204C135.44 30.9066 135.726 30.6763 136.093 30.5132C136.465 30.3501 136.89 30.2686 137.37 30.2686C138.094 30.2686 138.805 30.4461 139.505 30.8011L139.145 31.8661C138.989 31.7653 138.808 31.6766 138.602 31.5998C138.397 31.5183 138.187 31.4559 137.971 31.4127C137.756 31.3696 137.553 31.348 137.362 31.348C137.005 31.348 136.717 31.4295 136.497 31.5926C136.277 31.7509 136.167 31.9644 136.167 32.2331C136.167 32.3866 136.211 32.5281 136.299 32.6577C136.392 32.7824 136.546 32.9071 136.761 33.0318C136.976 33.1566 137.274 33.2957 137.656 33.4492C137.993 33.5835 138.326 33.7371 138.654 33.9098C138.981 34.0777 139.253 34.296 139.468 34.5646C139.688 34.8285 139.798 35.1739 139.798 35.6008C139.798 36.023 139.683 36.3972 139.453 36.7234C139.228 37.0449 138.913 37.2967 138.507 37.479C138.106 37.6613 137.641 37.7525 137.113 37.7525C136.237 37.7525 135.421 37.4958 134.663 36.9825Z" fill="#025CCA"/>
<path d="M164.791 20.5936L165.356 18.6063C165.672 18.8988 166.032 19.1526 166.435 19.3677C166.839 19.5828 167.264 19.7505 167.711 19.871C168.159 19.9828 168.61 20.0388 169.066 20.0388C169.882 20.0388 170.54 19.8624 171.04 19.5097C171.54 19.1569 171.79 18.6967 171.79 18.1289C171.79 17.7159 171.658 17.3761 171.395 17.1094C171.141 16.8341 170.803 16.5975 170.382 16.3997C169.961 16.2018 169.509 16.0125 169.027 15.8319C168.439 15.6082 167.856 15.3544 167.277 15.0705C166.698 14.7866 166.216 14.4124 165.83 13.9478C165.453 13.4832 165.264 12.8724 165.264 12.1154C165.264 11.3927 165.448 10.7647 165.817 10.2313C166.185 9.69791 166.698 9.28497 167.356 8.99247C168.023 8.69996 168.786 8.55371 169.645 8.55371C170.943 8.55371 172.219 8.87202 173.474 9.50865L172.829 11.4185C172.548 11.2379 172.224 11.0787 171.855 10.9411C171.487 10.7948 171.11 10.683 170.724 10.6055C170.338 10.5281 169.974 10.4894 169.632 10.4894C168.992 10.4894 168.474 10.6356 168.08 10.9281C167.685 11.212 167.488 11.5949 167.488 12.0767C167.488 12.3519 167.567 12.6057 167.724 12.838C167.891 13.0617 168.167 13.2854 168.553 13.5091C168.939 13.7327 169.474 13.9822 170.158 14.2575C170.763 14.4984 171.36 14.7737 171.948 15.0834C172.535 15.3845 173.022 15.776 173.408 16.2577C173.803 16.7309 174 17.3503 174 18.116C174 18.873 173.794 19.5441 173.382 20.1291C172.978 20.7055 172.412 21.1571 171.684 21.4841C170.965 21.811 170.132 21.9744 169.185 21.9744C167.615 21.9744 166.15 21.5142 164.791 20.5936Z" fill="#025CCA"/>
<path d="M161.748 21.7163H159.591V14.8382C159.591 13.4531 159.279 12.3778 158.657 11.6121C158.043 10.8378 157.174 10.4507 156.052 10.4507C154.92 10.4507 154.03 10.8421 153.381 11.625C152.741 12.3993 152.421 13.4703 152.421 14.8382V21.7163H150.263V14.8382C150.263 13.4531 149.951 12.3778 149.329 11.6121C148.706 10.8378 147.833 10.4507 146.711 10.4507C145.579 10.4507 144.689 10.8421 144.04 11.625C143.4 12.3993 143.08 13.4703 143.08 14.8382V21.7163H140.922V8.8118H142.685L142.777 11.1217C143.215 10.2786 143.812 9.64199 144.566 9.21184C145.329 8.77309 146.228 8.55371 147.263 8.55371C148.368 8.55371 149.311 8.7989 150.092 9.28927C150.881 9.77104 151.469 10.4636 151.855 11.3669C152.285 10.4464 152.894 9.74953 153.684 9.27637C154.482 8.7946 155.433 8.55371 156.538 8.55371C158.179 8.55371 159.455 9.06559 160.367 10.0894C161.288 11.1045 161.748 12.524 161.748 14.3478V21.7163Z" fill="#025CCA"/>
<path d="M136.959 21.7163H135.104L134.959 20.0129C134.476 20.6238 133.862 21.1055 133.117 21.4583C132.371 21.8024 131.538 21.9744 130.617 21.9744C129.67 21.9744 128.824 21.7938 128.078 21.4324C127.333 21.0625 126.745 20.5592 126.315 19.9226C125.894 19.286 125.684 18.5633 125.684 17.7546C125.684 16.9029 125.912 16.1545 126.368 15.5093C126.833 14.8554 127.46 14.3435 128.249 13.9736C129.047 13.6037 129.951 13.4187 130.959 13.4187C131.617 13.4187 132.288 13.5005 132.972 13.6639C133.656 13.8188 134.266 14.0338 134.801 14.3091V13.7671C134.801 13.0789 134.626 12.4939 134.275 12.0121C133.924 11.5218 133.455 11.1475 132.867 10.8894C132.279 10.6227 131.63 10.4894 130.92 10.4894C130.306 10.4894 129.679 10.6012 129.038 10.8249C128.398 11.04 127.784 11.3755 127.197 11.8315L126.486 10.0119C127.249 9.53015 128.052 9.16883 128.894 8.92794C129.736 8.67845 130.569 8.55371 131.393 8.55371C132.534 8.55371 133.516 8.78169 134.34 9.23765C135.174 9.68501 135.818 10.3259 136.274 11.1604C136.731 11.9863 136.959 12.9671 136.959 14.1027V21.7163ZM130.999 20.0388C131.674 20.0388 132.292 19.9011 132.854 19.6258C133.415 19.3505 133.871 18.9548 134.222 18.4386C134.573 17.9138 134.766 17.2944 134.801 16.5803V16.361C134.319 15.991 133.775 15.7071 133.17 15.5093C132.573 15.3028 131.964 15.1995 131.341 15.1995C130.367 15.1995 129.552 15.4318 128.894 15.8964C128.245 16.361 127.92 16.9503 127.92 17.6643C127.92 18.1117 128.052 18.516 128.315 18.8773C128.587 19.2387 128.955 19.5226 129.42 19.729C129.885 19.9355 130.411 20.0388 130.999 20.0388Z" fill="#025CCA"/>
<path d="M122.404 20.1291C120.773 21.3593 118.975 21.9744 117.01 21.9744C115.642 21.9744 114.414 21.6733 113.326 21.0711C112.239 20.4689 111.379 19.6516 110.748 18.6193C110.125 17.5783 109.814 16.404 109.814 15.0963C109.814 13.8403 110.103 12.7219 110.682 11.7411C111.261 10.7518 112.055 9.97321 113.063 9.40541C114.072 8.83761 115.217 8.55371 116.497 8.55371C117.813 8.55371 118.971 8.86342 119.97 9.48284C120.979 10.1023 121.764 10.9626 122.325 12.0637C122.887 13.1649 123.167 14.4382 123.167 15.8835V16.2964H112.156C112.313 17.0535 112.629 17.7116 113.103 18.2708C113.585 18.83 114.182 19.2645 114.892 19.5742C115.603 19.8839 116.396 20.0388 117.273 20.0388C118.782 20.0388 120.159 19.5527 121.404 18.5805L122.404 20.1291ZM112.077 14.4898H121.128C121.032 13.6897 120.777 12.9929 120.365 12.3993C119.962 11.7971 119.435 11.3282 118.786 10.9927C118.146 10.6572 117.422 10.4894 116.616 10.4894C115.8 10.4894 115.063 10.6572 114.405 10.9927C113.756 11.3282 113.226 11.7971 112.813 12.3993C112.41 12.9929 112.164 13.6897 112.077 14.4898Z" fill="#025CCA"/>
<path d="M102.417 21.7163H100.259V8.8118H102.154L102.246 11.3669C102.702 10.4808 103.342 9.79255 104.167 9.30217C105 8.8032 105.956 8.55371 107.035 8.55371C107.272 8.55371 107.513 8.56662 107.758 8.59242C108.004 8.61823 108.25 8.65695 108.495 8.70857L108.232 10.6184C107.75 10.5066 107.272 10.4507 106.798 10.4507C105.938 10.4507 105.175 10.6572 104.509 11.0701C103.851 11.483 103.338 12.0508 102.969 12.7735C102.601 13.4961 102.417 14.3263 102.417 15.2641V21.7163Z" fill="#025CCA"/>
<path d="M96.0464 21.7162H94.1256L94.0072 19.8321C93.402 20.4946 92.6652 21.0193 91.7969 21.4065C90.9286 21.785 89.9813 21.9743 88.9551 21.9743C87.657 21.9743 86.4949 21.6818 85.4687 21.0968C84.4425 20.5118 83.6312 19.7117 83.0348 18.6965C82.4471 17.6814 82.1533 16.5372 82.1533 15.2639C82.1533 13.9821 82.4471 12.8379 83.0348 11.8313C83.6312 10.8161 84.4425 10.0161 85.4687 9.43106C86.4949 8.84606 87.657 8.55355 88.9551 8.55355C89.9462 8.55355 90.8628 8.72992 91.7048 9.08264C92.5556 9.43536 93.2836 9.92574 93.8888 10.5538V2.35938H96.0464V21.7162ZM89.1393 20.0644C90.0164 20.0644 90.8146 19.8665 91.5338 19.4708C92.253 19.0665 92.8231 18.5202 93.2441 17.8319C93.6739 17.1351 93.8888 16.3479 93.8888 15.4704V15.0316C93.8888 14.1541 93.6739 13.3712 93.2441 12.683C92.8231 11.9862 92.253 11.4399 91.5338 11.0441C90.8146 10.6484 90.0164 10.4505 89.1393 10.4505C88.2272 10.4505 87.4115 10.6613 86.6923 11.0828C85.973 11.5044 85.4029 12.0765 84.9819 12.7991C84.5697 13.5218 84.3636 14.3391 84.3636 15.251C84.3636 16.1629 84.5697 16.9845 84.9819 17.7158C85.4029 18.4384 85.973 19.0105 86.6923 19.4321C87.4115 19.8536 88.2272 20.0644 89.1393 20.0644Z" fill="#025CCA"/>
<path d="M77.2526 6.05042C76.7088 6.05042 76.2484 5.86546 75.8712 5.49553C75.5028 5.11699 75.3187 4.66103 75.3187 4.12765C75.3187 3.60286 75.5028 3.1555 75.8712 2.78557C76.2484 2.40704 76.7088 2.21777 77.2526 2.21777C77.8052 2.21777 78.2701 2.40704 78.6472 2.78557C79.0244 3.1555 79.2129 3.60286 79.2129 4.12765C79.2129 4.66103 79.0244 5.11699 78.6472 5.49553C78.2701 5.86546 77.8052 6.05042 77.2526 6.05042ZM79.4234 21.7165H75.1082V8.81199H79.4234V21.7165Z" fill="#025CCA"/>
<path d="M63.6161 21.9228C62.4496 21.9228 61.4102 21.6346 60.4981 21.0582C59.5859 20.4732 58.8667 19.6774 58.3404 18.6709C57.823 17.6643 57.5642 16.5201 57.5642 15.2383C57.5642 13.9478 57.823 12.8036 58.3404 11.8057C58.8667 10.7991 59.5859 10.0076 60.4981 9.43122C61.4102 8.84621 62.4496 8.55371 63.6161 8.55371C64.5195 8.55371 65.3484 8.73007 66.1027 9.0828C66.857 9.42692 67.506 9.91299 68.0498 10.541L68.2471 8.8118H72.023V21.355C72.023 22.7659 71.6941 24.0047 71.0363 25.0715C70.3872 26.1383 69.4707 26.9642 68.2866 27.5492C67.1025 28.1342 65.7167 28.4267 64.1292 28.4267C61.954 28.4267 59.9543 27.7729 58.1299 26.4652L59.8403 22.9939C60.998 24.0865 62.3224 24.6328 63.8135 24.6328C64.5853 24.6328 65.2607 24.4865 65.8395 24.194C66.4272 23.9101 66.8833 23.5058 67.2078 22.981C67.5411 22.4562 67.7077 21.854 67.7077 21.1743V20.2839C67.1815 20.8001 66.5719 21.2045 65.879 21.497C65.1861 21.7809 64.4318 21.9228 63.6161 21.9228ZM64.8528 18.1418C65.3878 18.1418 65.8702 18.0299 66.3 17.8063C66.7298 17.5826 67.0718 17.2686 67.3262 16.8642C67.5806 16.4599 67.7077 16.0039 67.7077 15.4964V14.9544C67.7077 14.4468 67.5762 13.9951 67.313 13.5994C67.0587 13.2036 66.7166 12.8939 66.2869 12.6703C65.8571 12.4466 65.3791 12.3347 64.8528 12.3347C64.309 12.3347 63.8178 12.4595 63.3793 12.709C62.9408 12.9585 62.5943 13.3026 62.34 13.7413C62.0944 14.1801 61.9716 14.6791 61.9716 15.2383C61.9716 15.7975 62.0944 16.2964 62.34 16.7352C62.5943 17.1739 62.9408 17.5181 63.3793 17.7675C63.8178 18.017 64.309 18.1418 64.8528 18.1418Z" fill="#025CCA"/>
<path d="M52.9262 6.05042C52.3824 6.05042 51.922 5.86546 51.5448 5.49553C51.1764 5.11699 50.9922 4.66103 50.9922 4.12765C50.9922 3.60286 51.1764 3.1555 51.5448 2.78557C51.922 2.40704 52.3824 2.21777 52.9262 2.21777C53.4788 2.21777 53.9436 2.40704 54.3208 2.78557C54.6979 3.1555 54.8865 3.60286 54.8865 4.12765C54.8865 4.66103 54.6979 5.11699 54.3208 5.49553C53.9436 5.86546 53.4788 6.05042 52.9262 6.05042ZM55.097 21.7165H50.7817V8.81199H55.097V21.7165Z" fill="#025CCA"/>
<path d="M47.5788 21.7162H43.7898L43.5661 19.9999C43.0311 20.6107 42.382 21.0925 41.619 21.4452C40.8559 21.7979 40.0314 21.9743 39.1456 21.9743C37.9703 21.9743 36.9222 21.6861 36.0012 21.1097C35.089 20.5247 34.3698 19.7289 33.8436 18.7223C33.3173 17.7072 33.0542 16.5544 33.0542 15.2639C33.0542 13.9735 33.3173 12.825 33.8436 11.8184C34.3698 10.8032 35.089 10.0075 36.0012 9.43106C36.9222 8.84606 37.9703 8.55355 39.1456 8.55355C39.9613 8.55355 40.72 8.6998 41.4216 8.99231C42.1233 9.27621 42.7373 9.67625 43.2635 10.1924V2.35938H47.5788V21.7162ZM40.3823 18.1803C40.9085 18.1803 41.3909 18.0685 41.8295 17.8448C42.268 17.6125 42.6145 17.2942 42.8688 16.8899C43.1319 16.4769 43.2635 16.0081 43.2635 15.4833V15.0058C43.2635 14.4896 43.1319 14.0337 42.8688 13.6379C42.6145 13.2336 42.268 12.9153 41.8295 12.683C41.3909 12.4507 40.9085 12.3346 40.3823 12.3346C39.8209 12.3346 39.321 12.4636 38.8825 12.7217C38.4439 12.9712 38.0975 13.3196 37.8431 13.767C37.5975 14.2057 37.4747 14.7047 37.4747 15.2639C37.4747 15.8231 37.5975 16.3264 37.8431 16.7737C38.0975 17.2125 38.4439 17.5566 38.8825 17.8061C39.321 18.0556 39.8209 18.1803 40.3823 18.1803Z" fill="#025CCA"/>
<path fill-rule="evenodd" clip-rule="evenodd" d="M13.4721 3.37718C9.8826 3.37718 7.05373 6.11969 7.05373 9.40648C7.05373 9.50396 7.05618 9.60079 7.06102 9.69693C7.08999 10.273 6.72599 10.7982 6.16913 10.9836C4.08289 11.6784 2.63364 13.5405 2.63364 15.6815C2.63364 18.3907 4.96777 20.665 7.94696 20.665C8.67422 20.665 9.26378 21.2433 9.26378 21.9566C9.26378 22.67 8.67422 23.2482 7.94696 23.2482C3.6027 23.2482 0 19.9036 0 15.6815C0 12.6814 1.82614 10.1185 4.43588 8.89199C4.71627 4.33718 8.69593 0.793945 13.4721 0.793945C18.2482 0.793945 22.2279 4.33717 22.5083 8.89197C25.118 10.1185 26.9441 12.6814 26.9441 15.6815C26.9441 16.3949 26.3546 16.9732 25.6273 16.9732C24.9001 16.9732 24.3105 16.3949 24.3105 15.6815C24.3105 13.5405 22.8612 11.6784 20.775 10.9836C20.2184 10.7982 19.8544 10.2734 19.8832 9.69741C19.888 9.60096 19.8904 9.50396 19.8904 9.40648C19.8904 6.11969 17.0616 3.37718 13.4721 3.37718Z" fill="#025CCA"/>
<path fill-rule="evenodd" clip-rule="evenodd" d="M17.9963 12.995C18.1672 12.5531 17.8677 12.0269 17.3911 12.096C16.6779 12.1995 15.9776 12.4097 15.3172 12.7267C14.6322 13.0555 13.9899 13.4992 13.4205 14.0578C10.6515 16.7738 10.6515 21.1773 13.4205 23.8934C16.1896 26.6094 20.6791 26.6094 23.4481 23.8934C24.0175 23.3349 24.4699 22.7049 24.8051 22.033C25.1283 21.3852 25.3426 20.6984 25.4481 19.9988C25.5186 19.5313 24.9821 19.2375 24.5316 19.4052C23.9827 19.6094 23.4048 19.7168 22.8255 19.7273C21.4983 19.7512 20.1633 19.2665 19.1505 18.2731C18.1377 17.2797 17.6435 15.9702 17.668 14.6684C17.6786 14.1002 17.7881 13.5334 17.9963 12.995ZM15.1422 16.0286C13.5436 17.7441 13.5904 20.4068 15.2828 22.0668C16.9751 23.7267 19.6898 23.7727 21.4388 22.2047C19.9192 21.9523 18.462 21.2509 17.2883 20.0997C16.1146 18.9484 15.3995 17.5191 15.1422 16.0286Z" fill="#025CCA"/>
</svg>
