<svg width="677" height="160" viewBox="0 0 677 160" fill="none" xmlns="http://www.w3.org/2000/svg">
<path d="M674.382 142.251C670.849 144.967 666.955 146.325 662.701 146.325C659.738 146.325 657.079 145.66 654.724 144.33C652.369 143.001 650.507 141.197 649.14 138.917C647.791 136.619 647.117 134.027 647.117 131.14C647.117 128.367 647.744 125.897 648.997 123.732C650.251 121.548 651.97 119.829 654.154 118.576C656.338 117.322 658.817 116.695 661.59 116.695C664.439 116.695 666.946 117.379 669.111 118.746C671.295 120.114 672.995 122.013 674.211 124.444C675.427 126.876 676.034 129.687 676.034 132.877V133.789H652.188C652.53 135.461 653.214 136.914 654.239 138.148C655.284 139.383 656.576 140.342 658.114 141.026C659.653 141.709 661.371 142.051 663.271 142.051C666.538 142.051 669.52 140.978 672.217 138.832L674.382 142.251ZM652.017 129.801H671.618C671.409 128.034 670.859 126.496 669.966 125.185C669.092 123.856 667.953 122.821 666.547 122.08C665.161 121.339 663.594 120.969 661.846 120.969C660.08 120.969 658.484 121.339 657.06 122.08C655.654 122.821 654.505 123.856 653.613 125.185C652.739 126.496 652.207 128.034 652.017 129.801Z" fill="#2E63EB"/>
<path d="M642.523 141.652C641.136 143.153 639.494 144.311 637.594 145.128C635.695 145.926 633.653 146.325 631.469 146.325C628.639 146.325 626.094 145.679 623.834 144.387C621.592 143.096 619.816 141.33 618.506 139.088C617.214 136.847 616.569 134.321 616.569 131.51C616.569 128.68 617.214 126.154 618.506 123.932C619.816 121.69 621.592 119.924 623.834 118.632C626.094 117.341 628.639 116.695 631.469 116.695C633.634 116.695 635.666 117.094 637.566 117.892C639.465 118.689 641.108 119.839 642.495 121.339L639.702 124.274C638.696 123.21 637.49 122.393 636.084 121.823C634.698 121.254 633.226 120.969 631.668 120.969C629.674 120.969 627.898 121.425 626.341 122.336C624.802 123.229 623.587 124.463 622.694 126.04C621.82 127.616 621.383 129.43 621.383 131.481C621.383 133.533 621.82 135.356 622.694 136.952C623.587 138.547 624.802 139.801 626.341 140.712C627.898 141.605 629.674 142.051 631.668 142.051C633.226 142.051 634.707 141.766 636.113 141.197C637.518 140.608 638.715 139.791 639.702 138.746L642.523 141.652Z" fill="#2E63EB"/>
<path d="M610.266 145.755H606.249L605.935 141.994C604.891 143.343 603.561 144.406 601.947 145.185C600.332 145.945 598.528 146.325 596.534 146.325C594.482 146.325 592.649 145.926 591.035 145.128C589.421 144.311 588.148 143.2 587.217 141.795C586.306 140.389 585.85 138.794 585.85 137.009C585.85 135.128 586.344 133.476 587.331 132.051C588.338 130.608 589.696 129.478 591.405 128.661C593.134 127.844 595.09 127.436 597.274 127.436C598.699 127.436 600.152 127.616 601.633 127.977C603.115 128.319 604.435 128.794 605.593 129.402V128.205C605.593 126.686 605.214 125.394 604.454 124.33C603.694 123.248 602.678 122.422 601.405 121.852C600.133 121.263 598.727 120.969 597.189 120.969C595.859 120.969 594.501 121.216 593.115 121.709C591.728 122.184 590.399 122.925 589.126 123.932L587.588 119.915C589.24 118.851 590.978 118.053 592.801 117.521C594.625 116.971 596.429 116.695 598.215 116.695C600.684 116.695 602.811 117.198 604.596 118.205C606.401 119.193 607.797 120.608 608.784 122.45C609.772 124.274 610.266 126.439 610.266 128.946V145.755ZM597.36 142.051C598.822 142.051 600.161 141.747 601.377 141.14C602.592 140.532 603.58 139.658 604.34 138.519C605.1 137.36 605.517 135.992 605.593 134.416V133.932C604.549 133.115 603.371 132.488 602.061 132.051C600.769 131.595 599.449 131.368 598.101 131.368C595.992 131.368 594.226 131.88 592.801 132.906C591.396 133.932 590.693 135.233 590.693 136.809C590.693 137.797 590.978 138.689 591.548 139.487C592.137 140.285 592.934 140.912 593.941 141.368C594.948 141.823 596.087 142.051 597.36 142.051Z" fill="#2E63EB"/>
<path d="M555.017 160H550.344V117.265H554.504L554.732 121.425C556.061 119.962 557.666 118.813 559.547 117.977C561.427 117.123 563.488 116.695 565.729 116.695C568.521 116.695 571.019 117.341 573.222 118.632C575.444 119.924 577.191 121.69 578.464 123.932C579.755 126.154 580.401 128.68 580.401 131.51C580.401 134.321 579.755 136.847 578.464 139.088C577.191 141.33 575.444 143.096 573.222 144.387C571.019 145.679 568.521 146.325 565.729 146.325C563.583 146.325 561.588 145.935 559.746 145.157C557.923 144.378 556.346 143.295 555.017 141.909V160ZM565.358 142.051C567.353 142.051 569.119 141.605 570.658 140.712C572.196 139.801 573.393 138.547 574.247 136.952C575.121 135.356 575.558 133.533 575.558 131.481C575.558 129.411 575.121 127.588 574.247 126.011C573.374 124.416 572.168 123.162 570.629 122.251C569.11 121.339 567.362 120.883 565.387 120.883C563.507 120.883 561.807 121.301 560.287 122.137C558.787 122.972 557.571 124.122 556.641 125.584C555.71 127.028 555.169 128.68 555.017 130.541V132.479C555.169 134.34 555.7 135.992 556.612 137.436C557.524 138.879 558.73 140.01 560.23 140.826C561.75 141.643 563.459 142.051 565.358 142.051Z" fill="#2E63EB"/>
<path d="M523.272 143.276L524.497 138.889C525.181 139.535 525.96 140.095 526.833 140.57C527.707 141.045 528.628 141.415 529.597 141.681C530.565 141.928 531.544 142.051 532.531 142.051C534.298 142.051 535.722 141.662 536.805 140.883C537.887 140.104 538.429 139.088 538.429 137.835C538.429 136.923 538.144 136.173 537.574 135.584C537.023 134.976 536.292 134.454 535.38 134.017C534.469 133.58 533.49 133.162 532.446 132.764C531.173 132.27 529.91 131.709 528.657 131.083C527.403 130.456 526.358 129.63 525.523 128.604C524.706 127.578 524.298 126.23 524.298 124.558C524.298 122.963 524.696 121.576 525.494 120.399C526.292 119.221 527.403 118.31 528.828 117.664C530.271 117.018 531.923 116.695 533.785 116.695C536.596 116.695 539.359 117.398 542.075 118.803L540.679 123.02C540.072 122.621 539.369 122.27 538.571 121.966C537.773 121.643 536.957 121.396 536.121 121.225C535.285 121.054 534.497 120.969 533.756 120.969C532.37 120.969 531.249 121.292 530.394 121.937C529.54 122.564 529.112 123.409 529.112 124.473C529.112 125.081 529.283 125.641 529.625 126.154C529.986 126.648 530.584 127.142 531.42 127.635C532.256 128.129 533.414 128.68 534.896 129.288C536.206 129.82 537.498 130.427 538.771 131.111C540.043 131.776 541.097 132.64 541.933 133.704C542.788 134.748 543.215 136.116 543.215 137.806C543.215 139.478 542.769 140.959 541.876 142.251C541.002 143.523 539.777 144.52 538.201 145.242C536.643 145.964 534.839 146.325 532.788 146.325C529.388 146.325 526.216 145.309 523.272 143.276Z" fill="#2E63EB"/>
<path d="M640.268 78.3898L642.465 70.5219C643.691 71.6799 645.088 72.6847 646.655 73.5362C648.221 74.3877 649.873 75.0519 651.61 75.5287C653.347 75.9715 655.102 76.1929 656.873 76.1929C660.04 76.1929 662.595 75.4947 664.536 74.0982C666.478 72.7017 667.448 70.8795 667.448 68.6315C667.448 66.9966 666.938 65.6512 665.916 64.5954C664.928 63.5054 663.617 62.5688 661.982 61.7854C660.347 61.002 658.593 60.2527 656.719 59.5374C654.437 58.6518 652.172 57.6471 649.924 56.5231C647.676 55.3991 645.803 53.9175 644.304 52.0782C642.84 50.2389 642.108 47.8207 642.108 44.8234C642.108 41.9623 642.823 39.4759 644.253 37.3641C645.684 35.2524 647.676 33.6175 650.231 32.4595C652.82 31.3014 655.783 30.7224 659.121 30.7224C664.162 30.7224 669.117 31.9826 673.988 34.5031L671.485 42.0645C670.395 41.3492 669.134 40.7191 667.704 40.1741C666.273 39.5951 664.809 39.1523 663.31 38.8458C661.811 38.5392 660.398 38.386 659.07 38.386C656.583 38.386 654.574 38.965 653.041 40.123C651.508 41.247 650.742 42.7627 650.742 44.6701C650.742 45.76 651.048 46.7648 651.661 47.6844C652.309 48.57 653.382 49.4556 654.88 50.3411C656.379 51.2267 658.457 52.2144 661.113 53.3044C663.463 54.2581 665.779 55.348 668.062 56.5742C670.344 57.7663 672.234 59.316 673.733 61.2234C675.265 63.0967 676.032 65.5491 676.032 68.5804C676.032 71.5777 675.231 74.2344 673.63 76.5505C672.064 78.8326 669.867 80.6207 667.04 81.915C664.247 83.2093 661.011 83.8565 657.333 83.8565C651.236 83.8565 645.548 82.0343 640.268 78.3898Z" fill="black"/>
<path d="M628.454 82.8347H620.075V55.6034C620.075 50.1197 618.866 45.8622 616.447 42.8308C614.063 39.7654 610.691 38.2327 606.331 38.2327C601.938 38.2327 598.481 39.7824 595.96 42.8819C593.474 45.9473 592.23 50.1879 592.23 55.6034V82.8347H583.852V55.6034C583.852 50.1197 582.642 45.8622 580.224 42.8308C577.806 39.7654 574.417 38.2327 570.057 38.2327C565.663 38.2327 562.206 39.7824 559.686 42.8819C557.199 45.9473 555.956 50.1879 555.956 55.6034V82.8347H547.577V31.7442H554.424L554.781 40.8894C556.484 37.5515 558.8 35.031 561.729 33.328C564.693 31.5909 568.184 30.7224 572.203 30.7224C576.495 30.7224 580.156 31.6931 583.187 33.6345C586.253 35.5419 588.535 38.2838 590.034 41.8601C591.703 38.2157 594.07 35.4568 597.135 33.5834C600.235 31.6761 603.93 30.7224 608.222 30.7224C614.591 30.7224 619.547 32.749 623.089 36.8021C626.665 40.8213 628.454 46.4412 628.454 53.662V82.8347Z" fill="black"/>
<path d="M532.187 82.8347H524.984L524.422 76.0907C522.548 78.509 520.164 80.4164 517.269 81.8129C514.374 83.1753 511.138 83.8565 507.562 83.8565C503.883 83.8565 500.596 83.1412 497.701 81.7107C494.806 80.2461 492.524 78.2536 490.855 75.7331C489.22 73.2126 488.403 70.3516 488.403 67.1499C488.403 63.7779 489.288 60.8147 491.06 58.2601C492.865 55.6716 495.3 53.645 498.365 52.1804C501.465 50.7158 504.973 49.9835 508.89 49.9835C511.445 49.9835 514.05 50.3071 516.707 50.9542C519.364 51.5673 521.731 52.4188 523.809 53.5087V51.3629C523.809 48.6381 523.127 46.322 521.765 44.4146C520.403 42.4732 518.58 40.9916 516.298 39.9698C514.016 38.9139 511.496 38.386 508.737 38.386C506.353 38.386 503.917 38.8287 501.431 39.7143C498.945 40.5658 496.56 41.8942 494.278 43.6994L491.519 36.4956C494.483 34.5882 497.599 33.1577 500.869 32.204C504.139 31.2163 507.374 30.7224 510.576 30.7224C515.004 30.7224 518.819 31.625 522.02 33.4302C525.256 35.2013 527.76 37.7388 529.531 41.0427C531.302 44.3124 532.187 48.1953 532.187 52.6913V82.8347ZM509.043 76.1929C511.666 76.1929 514.067 75.6479 516.247 74.558C518.427 73.4681 520.198 71.9013 521.561 69.8577C522.923 67.78 523.672 65.3277 523.809 62.5007V61.6321C521.935 60.1675 519.823 59.0435 517.473 58.2601C515.157 57.4427 512.79 57.034 510.372 57.034C506.591 57.034 503.423 57.9536 500.869 59.7929C498.348 61.6321 497.088 63.9653 497.088 66.7923C497.088 68.5634 497.599 70.1642 498.621 71.5948C499.677 73.0253 501.107 74.1493 502.913 74.9667C504.718 75.7842 506.761 76.1929 509.043 76.1929Z" fill="black"/>
<path d="M475.668 76.5505C469.333 81.4212 462.351 83.8565 454.721 83.8565C449.408 83.8565 444.64 82.6644 440.416 80.2801C436.193 77.8959 432.855 74.6602 430.402 70.573C427.984 66.4517 426.775 61.8024 426.775 56.6253C426.775 51.6524 427.899 47.2246 430.147 43.3417C432.395 39.4248 435.477 36.3423 439.394 34.0944C443.311 31.8464 447.756 30.7224 452.729 30.7224C457.838 30.7224 462.334 31.9486 466.217 34.4009C470.134 36.8532 473.182 40.2593 475.362 44.619C477.542 48.9787 478.632 54.0196 478.632 59.7418V61.3767H435.869C436.482 64.374 437.708 66.9796 439.548 69.1935C441.421 71.4074 443.737 73.1275 446.496 74.3536C449.255 75.5798 452.337 76.1929 455.743 76.1929C461.602 76.1929 466.949 74.2685 471.786 70.4197L475.668 76.5505ZM435.562 54.224H470.713C470.338 51.0564 469.35 48.2975 467.749 45.9473C466.183 43.5631 464.139 41.7068 461.619 40.3785C459.132 39.0501 456.322 38.386 453.189 38.386C450.021 38.386 447.16 39.0501 444.605 40.3785C442.085 41.7068 440.024 43.5631 438.424 45.9473C436.857 48.2975 435.903 51.0564 435.562 54.224Z" fill="black"/>
<path d="M398.051 82.8347H389.672V31.7442H397.029L397.387 41.8601C399.158 38.3519 401.644 35.6271 404.846 33.6856C408.081 31.7101 411.794 30.7224 415.983 30.7224C416.903 30.7224 417.84 30.7735 418.793 30.8757C419.747 30.9778 420.701 31.1311 421.655 31.3355L420.633 38.8969C418.759 38.4541 416.903 38.2327 415.064 38.2327C411.726 38.2327 408.763 39.0501 406.174 40.685C403.62 42.3199 401.627 44.5679 400.197 47.429C398.766 50.29 398.051 53.5769 398.051 57.2894V82.8347Z" fill="black"/>
<path d="M373.31 82.8347H365.851L365.391 75.3755C363.041 77.9981 360.18 80.0758 356.808 81.6085C353.436 83.1072 349.757 83.8565 345.772 83.8565C340.731 83.8565 336.218 82.6984 332.233 80.3823C328.248 78.0662 325.098 74.8986 322.781 70.8795C320.499 66.8604 319.358 62.3304 319.358 57.2894C319.358 52.2145 320.499 47.6844 322.781 43.6994C325.098 39.6803 328.248 36.5127 332.233 34.1966C336.218 31.8805 340.731 30.7224 345.772 30.7224C349.621 30.7224 353.18 31.4206 356.45 32.8171C359.754 34.2136 362.581 36.155 364.931 38.6414V6.19897H373.31V82.8347ZM346.487 76.2951C349.893 76.2951 352.993 75.5117 355.786 73.9449C358.579 72.3441 360.793 70.1813 362.428 67.4565C364.097 64.6976 364.931 61.581 364.931 58.1069V56.3698C364.931 52.8957 364.097 49.7962 362.428 47.0714C360.793 44.3125 358.579 42.1496 355.786 40.5829C352.993 39.0161 349.893 38.2327 346.487 38.2327C342.945 38.2327 339.778 39.0672 336.985 40.7361C334.192 42.4051 331.978 44.6701 330.343 47.5312C328.742 50.3922 327.942 53.628 327.942 57.2384C327.942 60.8487 328.742 64.1015 330.343 66.9966C331.978 69.8577 334.192 72.1227 336.985 73.7917C339.778 75.4606 342.945 76.2951 346.487 76.2951Z" fill="black"/>
<path d="M300.328 20.8108C298.216 20.8108 296.428 20.0785 294.964 18.6139C293.533 17.1152 292.818 15.31 292.818 13.1983C292.818 11.1206 293.533 9.34946 294.964 7.88487C296.428 6.38621 298.216 5.63689 300.328 5.63689C302.474 5.63689 304.279 6.38621 305.744 7.88487C307.208 9.34946 307.941 11.1206 307.941 13.1983C307.941 15.31 307.208 17.1152 305.744 18.6139C304.279 20.0785 302.474 20.8108 300.328 20.8108ZM308.758 82.8346H292V31.7441H308.758V82.8346Z" fill="black"/>
<path d="M247.374 83.6521C242.844 83.6521 238.808 82.5111 235.266 80.229C231.723 77.9129 228.931 74.7624 226.887 70.7773C224.877 66.7923 223.873 62.2622 223.873 57.1872C223.873 52.0782 224.877 47.5482 226.887 43.5972C228.931 39.6121 231.723 36.4786 235.266 34.1965C238.808 31.8804 242.844 30.7224 247.374 30.7224C250.882 30.7224 254.101 31.4206 257.03 32.8171C259.959 34.1795 262.48 36.1039 264.592 38.5903L265.358 31.7442H280.021V81.4041C280.021 86.99 278.744 91.8947 276.189 96.1182C273.669 100.342 270.109 103.611 265.511 105.928C260.913 108.244 255.532 109.402 249.367 109.402C240.92 109.402 233.154 106.813 226.069 101.636L232.711 87.8926C237.207 92.2183 242.35 94.3811 248.141 94.3811C251.138 94.3811 253.76 93.8021 256.008 92.644C258.291 91.52 260.062 89.9192 261.322 87.8415C262.616 85.7638 263.263 83.3796 263.263 80.6889V77.1636C261.22 79.2072 258.853 80.8081 256.162 81.9661C253.471 83.0901 250.542 83.6521 247.374 83.6521ZM252.177 68.6826C254.254 68.6826 256.128 68.2398 257.797 67.3542C259.466 66.4687 260.794 65.2255 261.782 63.6246C262.769 62.0238 263.263 60.2186 263.263 58.2091V56.0633C263.263 54.0537 262.752 52.2655 261.731 50.6988C260.743 49.132 259.415 47.9058 257.746 47.0202C256.077 46.1347 254.22 45.6919 252.177 45.6919C250.065 45.6919 248.158 46.1858 246.455 47.1735C244.752 48.1613 243.406 49.5237 242.418 51.2607C241.465 52.9978 240.988 54.9733 240.988 57.1872C240.988 59.4012 241.465 61.3767 242.418 63.1137C243.406 64.8508 244.752 66.2132 246.455 67.201C248.158 68.1887 250.065 68.6826 252.177 68.6826Z" fill="black"/>
<path d="M205.864 20.8108C203.752 20.8108 201.964 20.0785 200.5 18.6139C199.069 17.1152 198.354 15.31 198.354 13.1983C198.354 11.1206 199.069 9.34946 200.5 7.88487C201.964 6.38621 203.752 5.63689 205.864 5.63689C208.01 5.63689 209.815 6.38621 211.28 7.88487C212.744 9.34946 213.477 11.1206 213.477 13.1983C213.477 15.31 212.744 17.1152 211.28 18.6139C209.815 20.0785 208.01 20.8108 205.864 20.8108ZM214.294 82.8346H197.536V31.7441H214.294V82.8346Z" fill="black"/>
<path d="M185.097 82.8347H170.383L169.514 76.0396C167.437 78.4579 164.916 80.3653 161.953 81.7618C158.99 83.1583 155.788 83.8565 152.348 83.8565C147.784 83.8565 143.714 82.7155 140.137 80.4334C136.595 78.1173 133.802 74.9668 131.759 70.9817C129.715 66.9626 128.693 62.3985 128.693 57.2894C128.693 52.1804 129.715 47.6333 131.759 43.6483C133.802 39.6292 136.595 36.4786 140.137 34.1966C143.714 31.8805 147.784 30.7224 152.348 30.7224C155.516 30.7224 158.462 31.3014 161.187 32.4595C163.911 33.5835 166.296 35.1673 168.339 37.2109V6.19897H185.097V82.8347ZM157.151 68.8359C159.194 68.8359 161.067 68.3931 162.77 67.5075C164.473 66.5879 165.819 65.3277 166.807 63.7268C167.828 62.0919 168.339 60.2357 168.339 58.158V56.2676C168.339 54.224 167.828 52.4188 166.807 50.852C165.819 49.2512 164.473 47.991 162.77 47.0714C161.067 46.1517 159.194 45.6919 157.151 45.6919C154.971 45.6919 153.029 46.2028 151.326 47.2246C149.623 48.2124 148.278 49.5918 147.29 51.363C146.336 53.1 145.86 55.0755 145.86 57.2894C145.86 59.5034 146.336 61.4959 147.29 63.267C148.278 65.0041 149.623 66.3665 151.326 67.3543C153.029 68.342 154.971 68.8359 157.151 68.8359Z" fill="black"/>
<path fill-rule="evenodd" clip-rule="evenodd" d="M52.6482 10.2273C38.709 10.2273 27.7236 21.0852 27.7236 34.0979C27.7236 34.4839 27.7331 34.8673 27.7519 35.2479C27.8644 37.5288 26.4509 39.6079 24.2884 40.342C16.1868 43.0926 10.5589 50.4651 10.5589 58.9416C10.5589 69.6676 19.6231 78.6716 31.1923 78.6716C34.0165 78.6716 36.306 80.9611 36.306 83.7853C36.306 86.6095 34.0165 88.8989 31.1923 88.8989C14.3221 88.8989 0.331543 75.6572 0.331543 58.9416C0.331543 47.0636 7.42309 36.9168 17.5576 32.061C18.6464 14.0281 34.1008 0 52.6482 0C71.1956 0 86.6499 14.028 87.7388 32.061C97.8731 36.9168 104.965 47.0635 104.965 58.9416C104.965 61.7658 102.675 64.0553 99.8512 64.0553C97.027 64.0553 94.7375 61.7658 94.7375 58.9416C94.7375 50.4651 89.1094 43.0926 81.0081 40.342C78.8464 39.608 77.433 37.53 77.5446 35.2498C77.5633 34.8679 77.5728 34.4839 77.5728 34.0979C77.5728 21.0852 66.5874 10.2273 52.6482 10.2273Z" fill="#2E63EB"/>
<path fill-rule="evenodd" clip-rule="evenodd" d="M70.2176 48.3069C70.8813 46.5574 69.7183 44.4739 67.8673 44.7477C65.0976 45.1574 62.3784 45.9897 59.8138 47.2447C57.1534 48.5465 54.6595 50.3031 52.4481 52.5145C41.6951 63.2675 41.6952 80.7016 52.4483 91.4547C63.2015 102.208 80.6356 102.208 91.3886 91.455C93.5999 89.2436 95.3566 86.7496 96.6584 84.0893C97.9134 81.5247 98.7457 78.8055 99.1554 76.0358C99.4292 74.1848 97.3456 73.0217 95.5962 73.6855C93.4646 74.4942 91.2207 74.9192 88.9711 74.9606C83.817 75.0554 78.6327 73.1363 74.6997 69.2033C70.7667 65.2703 68.8477 60.0861 68.9425 54.932C68.9838 52.6824 69.4089 50.4385 70.2176 48.3069ZM59.134 60.3172C52.9261 67.1089 53.1081 77.6511 59.68 84.223C66.252 90.795 76.7941 90.977 83.5858 84.7691C77.6849 83.7699 72.0258 80.9928 67.468 76.435C62.9102 71.8772 60.1332 66.2182 59.134 60.3172Z" fill="#2E63EB"/>
</svg>
