<svg width="676" height="160" viewBox="0 0 676 160" fill="none" xmlns="http://www.w3.org/2000/svg">
<path d="M674.082 142.251C670.55 144.967 666.656 146.325 662.401 146.325C659.438 146.325 656.779 145.66 654.424 144.331C652.069 143.001 650.208 141.197 648.84 138.917C647.492 136.619 646.817 134.027 646.817 131.14C646.817 128.367 647.444 125.897 648.698 123.732C649.951 121.548 651.67 119.829 653.854 118.576C656.039 117.322 658.517 116.695 661.29 116.695C664.139 116.695 666.646 117.379 668.812 118.746C670.996 120.114 672.696 122.013 673.911 124.444C675.127 126.876 675.735 129.687 675.735 132.878V133.789H651.889C652.23 135.461 652.914 136.914 653.94 138.148C654.985 139.383 656.276 140.342 657.815 141.026C659.353 141.709 661.072 142.051 662.971 142.051C666.238 142.051 669.22 140.978 671.917 138.832L674.082 142.251ZM651.718 129.801H671.319C671.11 128.034 670.559 126.496 669.666 125.185C668.793 123.856 667.653 122.821 666.248 122.08C664.861 121.339 663.294 120.969 661.547 120.969C659.78 120.969 658.185 121.339 656.76 122.08C655.355 122.821 654.206 123.856 653.313 125.185C652.439 126.496 651.908 128.034 651.718 129.801Z" fill="white"/>
<path d="M642.225 141.652C640.838 143.153 639.195 144.312 637.296 145.128C635.397 145.926 633.355 146.325 631.171 146.325C628.341 146.325 625.796 145.679 623.535 144.387C621.294 143.096 619.518 141.33 618.208 139.088C616.916 136.847 616.271 134.321 616.271 131.51C616.271 128.68 616.916 126.154 618.208 123.932C619.518 121.69 621.294 119.924 623.535 118.633C625.796 117.341 628.341 116.695 631.171 116.695C633.336 116.695 635.368 117.094 637.268 117.892C639.167 118.689 640.81 119.839 642.196 121.339L639.404 124.274C638.398 123.21 637.192 122.393 635.786 121.823C634.4 121.254 632.928 120.969 631.37 120.969C629.376 120.969 627.6 121.425 626.043 122.336C624.504 123.229 623.289 124.463 622.396 126.04C621.522 127.616 621.085 129.43 621.085 131.482C621.085 133.533 621.522 135.356 622.396 136.952C623.289 138.547 624.504 139.801 626.043 140.712C627.6 141.605 629.376 142.051 631.37 142.051C632.928 142.051 634.409 141.766 635.815 141.197C637.22 140.608 638.417 139.791 639.404 138.746L642.225 141.652Z" fill="white"/>
<path d="M609.968 145.755H605.951L605.637 141.994C604.593 143.343 603.263 144.406 601.649 145.185C600.034 145.945 598.23 146.325 596.236 146.325C594.184 146.325 592.351 145.926 590.737 145.128C589.123 144.312 587.85 143.2 586.919 141.795C586.008 140.389 585.552 138.794 585.552 137.009C585.552 135.128 586.046 133.476 587.033 132.051C588.04 130.608 589.398 129.478 591.107 128.661C592.836 127.844 594.792 127.436 596.976 127.436C598.401 127.436 599.854 127.616 601.335 127.977C602.817 128.319 604.137 128.794 605.295 129.402V128.205C605.295 126.686 604.915 125.394 604.156 124.331C603.396 123.248 602.38 122.422 601.107 121.852C599.835 121.263 598.429 120.969 596.891 120.969C595.561 120.969 594.203 121.216 592.817 121.709C591.43 122.184 590.101 122.925 588.828 123.932L587.29 119.915C588.942 118.851 590.68 118.053 592.503 117.521C594.327 116.971 596.131 116.695 597.916 116.695C600.386 116.695 602.513 117.199 604.298 118.205C606.103 119.193 607.499 120.608 608.486 122.45C609.474 124.274 609.968 126.439 609.968 128.946V145.755ZM597.062 142.051C598.524 142.051 599.863 141.747 601.079 141.14C602.294 140.532 603.282 139.658 604.042 138.519C604.802 137.36 605.219 135.992 605.295 134.416V133.932C604.251 133.115 603.073 132.488 601.763 132.051C600.471 131.595 599.151 131.368 597.802 131.368C595.694 131.368 593.928 131.88 592.503 132.906C591.098 133.932 590.395 135.233 590.395 136.809C590.395 137.797 590.68 138.689 591.25 139.487C591.839 140.285 592.636 140.912 593.643 141.368C594.65 141.823 595.789 142.051 597.062 142.051Z" fill="white"/>
<path d="M554.72 160H550.048V117.265H554.207L554.435 121.425C555.765 119.962 557.37 118.813 559.25 117.977C561.13 117.123 563.191 116.695 565.432 116.695C568.224 116.695 570.722 117.341 572.925 118.633C575.148 119.924 576.895 121.69 578.168 123.932C579.459 126.154 580.105 128.68 580.105 131.51C580.105 134.321 579.459 136.847 578.168 139.088C576.895 141.33 575.148 143.096 572.925 144.387C570.722 145.679 568.224 146.325 565.432 146.325C563.286 146.325 561.292 145.935 559.45 145.157C557.626 144.378 556.05 143.295 554.72 141.909V160ZM565.062 142.051C567.056 142.051 568.823 141.605 570.361 140.712C571.9 139.801 573.096 138.547 573.951 136.952C574.825 135.356 575.262 133.533 575.262 131.482C575.262 129.411 574.825 127.588 573.951 126.011C573.077 124.416 571.871 123.162 570.333 122.251C568.813 121.339 567.066 120.883 565.091 120.883C563.21 120.883 561.51 121.301 559.991 122.137C558.49 122.972 557.275 124.122 556.344 125.584C555.413 127.028 554.872 128.68 554.72 130.541V132.479C554.872 134.34 555.404 135.992 556.316 137.436C557.227 138.879 558.433 140.01 559.934 140.826C561.453 141.643 563.163 142.051 565.062 142.051Z" fill="white"/>
<path d="M522.974 143.276L524.199 138.889C524.882 139.535 525.661 140.095 526.535 140.57C527.409 141.045 528.33 141.415 529.298 141.681C530.267 141.928 531.245 142.051 532.233 142.051C533.999 142.051 535.424 141.662 536.506 140.883C537.589 140.104 538.13 139.088 538.13 137.835C538.13 136.923 537.845 136.173 537.276 135.584C536.725 134.976 535.994 134.454 535.082 134.017C534.17 133.58 533.192 133.162 532.147 132.764C530.875 132.27 529.612 131.709 528.358 131.083C527.105 130.456 526.06 129.63 525.224 128.604C524.408 127.578 523.999 126.23 523.999 124.558C523.999 122.963 524.398 121.576 525.196 120.399C525.994 119.221 527.105 118.31 528.529 117.664C529.973 117.018 531.625 116.695 533.486 116.695C536.297 116.695 539.061 117.398 541.777 118.803L540.381 123.02C539.773 122.621 539.07 122.27 538.273 121.966C537.475 121.643 536.658 121.396 535.823 121.225C534.987 121.054 534.199 120.969 533.458 120.969C532.071 120.969 530.951 121.292 530.096 121.937C529.241 122.564 528.814 123.409 528.814 124.473C528.814 125.081 528.985 125.641 529.327 126.154C529.688 126.648 530.286 127.142 531.122 127.635C531.957 128.129 533.116 128.68 534.598 129.288C535.908 129.82 537.2 130.427 538.472 131.111C539.745 131.776 540.799 132.64 541.635 133.704C542.489 134.748 542.917 136.116 542.917 137.806C542.917 139.478 542.47 140.959 541.578 142.251C540.704 143.523 539.479 144.52 537.902 145.242C536.345 145.964 534.541 146.325 532.489 146.325C529.089 146.325 525.918 145.309 522.974 143.276Z" fill="white"/>
<path d="M639.972 78.3898L642.169 70.5219C643.395 71.6799 644.791 72.6847 646.358 73.5362C647.925 74.3877 649.577 75.0519 651.314 75.5288C653.051 75.9715 654.805 76.1929 656.576 76.1929C659.744 76.1929 662.298 75.4947 664.24 74.0982C666.181 72.7017 667.152 70.8795 667.152 68.6315C667.152 66.9966 666.641 65.6513 665.619 64.5954C664.631 63.5055 663.32 62.5688 661.685 61.7854C660.05 61.002 658.296 60.2527 656.423 59.5374C654.141 58.6519 651.876 57.6471 649.628 56.5231C647.38 55.3991 645.506 53.9175 644.008 52.0782C642.543 50.239 641.811 47.8207 641.811 44.8234C641.811 41.9623 642.526 39.4759 643.957 37.3642C645.387 35.2524 647.38 33.6175 649.934 32.4595C652.523 31.3014 655.486 30.7224 658.824 30.7224C663.865 30.7224 668.821 31.9826 673.691 34.5031L671.188 42.0645C670.098 41.3492 668.838 40.7191 667.407 40.1741C665.977 39.5951 664.512 39.1523 663.013 38.8458C661.515 38.5393 660.101 38.386 658.773 38.386C656.287 38.386 654.277 38.965 652.744 40.1231C651.212 41.247 650.445 42.7627 650.445 44.6701C650.445 45.76 650.752 46.7648 651.365 47.6844C652.012 48.57 653.085 49.4556 654.584 50.3412C656.082 51.2267 658.16 52.2145 660.817 53.3044C663.167 54.2581 665.483 55.348 667.765 56.5742C670.047 57.7663 671.937 59.316 673.436 61.2234C674.969 63.0967 675.735 65.5491 675.735 68.5805C675.735 71.5778 674.935 74.2345 673.334 76.5506C671.767 78.8326 669.57 80.6208 666.743 81.9151C663.95 83.2094 660.714 83.8565 657.036 83.8565C650.939 83.8565 645.251 82.0343 639.972 78.3898Z" fill="white"/>
<path d="M628.157 82.8347H619.779V55.6035C619.779 50.1198 618.569 45.8622 616.151 42.8309C613.767 39.7654 610.395 38.2327 606.035 38.2327C601.642 38.2327 598.184 39.7825 595.664 42.8819C593.178 45.9474 591.934 50.1879 591.934 55.6035V82.8347H583.555V55.6035C583.555 50.1198 582.346 45.8622 579.928 42.8309C577.51 39.7654 574.121 38.2327 569.761 38.2327C565.367 38.2327 561.91 39.7825 559.39 42.8819C556.903 45.9474 555.66 50.1879 555.66 55.6035V82.8347H547.281V31.7442H554.127L554.485 40.8894C556.188 37.5515 558.504 35.031 561.433 33.328C564.397 31.591 567.888 30.7224 571.907 30.7224C576.198 30.7224 579.86 31.6931 582.891 33.6346C585.957 35.5419 588.239 38.2838 589.737 41.8601C591.406 38.2157 593.774 35.4568 596.839 33.5835C599.938 31.6761 603.634 30.7224 607.926 30.7224C614.295 30.7224 619.251 32.749 622.793 36.8022C626.369 40.8213 628.157 46.4412 628.157 53.662V82.8347Z" fill="white"/>
<path d="M531.89 82.8347H524.686L524.124 76.0908C522.251 78.509 519.867 80.4164 516.972 81.8129C514.076 83.1753 510.841 83.8565 507.264 83.8565C503.586 83.8565 500.299 83.1412 497.404 81.7107C494.509 80.2461 492.227 78.2536 490.558 75.7331C488.923 73.2127 488.105 70.3516 488.105 67.1499C488.105 63.7779 488.991 60.8147 490.762 58.2602C492.567 55.6716 495.003 53.645 498.068 52.1804C501.168 50.7158 504.676 49.9835 508.593 49.9835C511.147 49.9835 513.753 50.3071 516.41 50.9542C519.066 51.5673 521.433 52.4188 523.511 53.5088V51.363C523.511 48.6381 522.83 46.322 521.468 44.4147C520.105 42.4732 518.283 40.9916 516.001 39.9698C513.719 38.9139 511.198 38.386 508.439 38.386C506.055 38.386 503.62 38.8288 501.134 39.7143C498.647 40.5658 496.263 41.8942 493.981 43.6994L491.222 36.4956C494.185 34.5883 497.302 33.1577 500.572 32.204C503.841 31.2163 507.077 30.7224 510.279 30.7224C514.707 30.7224 518.521 31.625 521.723 33.4302C524.959 35.2013 527.462 37.7388 529.233 41.0427C531.004 44.3125 531.89 48.1954 531.89 52.6913V82.8347ZM508.746 76.1929C511.369 76.1929 513.77 75.648 515.95 74.558C518.13 73.4681 519.901 71.9013 521.263 69.8577C522.626 67.78 523.375 65.3277 523.511 62.5007V61.6321C521.638 60.1676 519.526 59.0436 517.176 58.2602C514.86 57.4427 512.493 57.034 510.074 57.034C506.294 57.034 503.126 57.9536 500.572 59.7929C498.051 61.6321 496.791 63.9653 496.791 66.7923C496.791 68.5634 497.302 70.1643 498.324 71.5948C499.379 73.0253 500.81 74.1493 502.615 74.9668C504.42 75.7842 506.464 76.1929 508.746 76.1929Z" fill="white"/>
<path d="M475.372 76.5506C469.037 81.4212 462.055 83.8565 454.425 83.8565C449.112 83.8565 444.343 82.6644 440.12 80.2802C435.896 77.8959 432.558 74.6602 430.106 70.573C427.688 66.4517 426.479 61.8024 426.479 56.6253C426.479 51.6525 427.603 47.2246 429.85 43.3418C432.098 39.4248 435.181 36.3424 439.098 34.0944C443.015 31.8464 447.46 30.7224 452.432 30.7224C457.542 30.7224 462.037 31.9486 465.92 34.4009C469.837 36.8533 472.886 40.2593 475.066 44.619C477.245 48.9787 478.335 54.0197 478.335 59.7418V61.3767H435.573C436.186 64.374 437.412 66.9796 439.251 69.1935C441.124 71.4075 443.441 73.1275 446.199 74.3537C448.958 75.5798 452.041 76.1929 455.447 76.1929C461.305 76.1929 466.653 74.2685 471.489 70.4197L475.372 76.5506ZM435.266 54.224H470.416C470.042 51.0564 469.054 48.2975 467.453 45.9474C465.886 43.5632 463.843 41.7069 461.322 40.3785C458.836 39.0502 456.026 38.386 452.892 38.386C449.725 38.386 446.864 39.0502 444.309 40.3785C441.789 41.7069 439.728 43.5632 438.127 45.9474C436.56 48.2975 435.607 51.0564 435.266 54.224Z" fill="white"/>
<path d="M397.754 82.8347H389.375V31.7442H396.732L397.09 41.8601C398.861 38.3519 401.347 35.6271 404.549 33.6857C407.785 31.7102 411.497 30.7224 415.687 30.7224C416.606 30.7224 417.543 30.7735 418.497 30.8757C419.45 30.9779 420.404 31.1311 421.358 31.3355L420.336 38.8969C418.463 38.4541 416.606 38.2327 414.767 38.2327C411.429 38.2327 408.466 39.0502 405.877 40.6851C403.323 42.3199 401.33 44.5679 399.9 47.429C398.469 50.2901 397.754 53.5769 397.754 57.2895V82.8347Z" fill="white"/>
<path d="M373.014 82.8347H365.555L365.095 75.3755C362.745 77.9981 359.884 80.0758 356.512 81.6085C353.14 83.1072 349.461 83.8565 345.476 83.8565C340.435 83.8565 335.922 82.6984 331.937 80.3823C327.952 78.0662 324.802 74.8986 322.486 70.8795C320.204 66.8604 319.062 62.3304 319.062 57.2894C319.062 52.2145 320.204 47.6844 322.486 43.6994C324.802 39.6803 327.952 36.5127 331.937 34.1966C335.922 31.8804 340.435 30.7224 345.476 30.7224C349.325 30.7224 352.884 31.4206 356.154 32.8171C359.458 34.2136 362.285 36.155 364.635 38.6414V6.19897H373.014V82.8347ZM346.192 76.2951C349.598 76.2951 352.697 75.5117 355.49 73.9449C358.283 72.3441 360.497 70.1813 362.132 67.4564C363.801 64.6976 364.635 61.581 364.635 58.1069V56.3698C364.635 52.8957 363.801 49.7962 362.132 47.0713C360.497 44.3125 358.283 42.1496 355.49 40.5829C352.697 39.0161 349.598 38.2327 346.192 38.2327C342.649 38.2327 339.482 39.0672 336.689 40.7361C333.896 42.4051 331.682 44.6701 330.047 47.5312C328.446 50.3922 327.646 53.628 327.646 57.2383C327.646 60.8487 328.446 64.1015 330.047 66.9966C331.682 69.8577 333.896 72.1227 336.689 73.7917C339.482 75.4606 342.649 76.2951 346.192 76.2951Z" fill="white"/>
<path d="M300.032 20.8107C297.92 20.8107 296.132 20.0784 294.667 18.6138C293.237 17.1152 292.522 15.31 292.522 13.1982C292.522 11.1206 293.237 9.34942 294.667 7.88482C296.132 6.38617 297.92 5.63684 300.032 5.63684C302.178 5.63684 303.983 6.38617 305.447 7.88482C306.912 9.34942 307.644 11.1206 307.644 13.1982C307.644 15.31 306.912 17.1152 305.447 18.6138C303.983 20.0784 302.178 20.8107 300.032 20.8107ZM308.462 82.8345H291.704V31.7441H308.462V82.8345Z" fill="white"/>
<path d="M247.077 83.6521C242.547 83.6521 238.511 82.5111 234.968 80.2291C231.426 77.913 228.633 74.7624 226.59 70.7773C224.58 66.7923 223.575 62.2623 223.575 57.1873C223.575 52.0782 224.58 47.5482 226.59 43.5972C228.633 39.6122 231.426 36.4786 234.968 34.1966C238.511 31.8805 242.547 30.7224 247.077 30.7224C250.585 30.7224 253.804 31.4206 256.733 32.8171C259.662 34.1795 262.183 36.1039 264.294 38.5903L265.061 31.7442H279.724V81.4042C279.724 86.99 278.446 91.8947 275.892 96.1182C273.371 100.342 269.812 103.611 265.214 105.928C260.616 108.244 255.234 109.402 249.069 109.402C240.622 109.402 232.857 106.813 225.772 101.636L232.414 87.8926C236.91 92.2183 242.053 94.3811 247.843 94.3811C250.84 94.3811 253.463 93.8021 255.711 92.6441C257.993 91.5201 259.764 89.9192 261.025 87.8416C262.319 85.7639 262.966 83.3797 262.966 80.6889V77.1636C260.922 79.2073 258.555 80.8081 255.864 81.9661C253.174 83.0901 250.244 83.6521 247.077 83.6521ZM251.879 68.6826C253.957 68.6826 255.83 68.2398 257.499 67.3543C259.168 66.4687 260.497 65.2255 261.484 63.6247C262.472 62.0238 262.966 60.2186 262.966 58.2091V56.0633C262.966 54.0537 262.455 52.2656 261.433 50.6988C260.445 49.132 259.117 47.9058 257.448 47.0203C255.779 46.1347 253.923 45.6919 251.879 45.6919C249.768 45.6919 247.86 46.1858 246.157 47.1735C244.454 48.1613 243.109 49.5237 242.121 51.2608C241.167 52.9979 240.691 54.9734 240.691 57.1873C240.691 59.4012 241.167 61.3767 242.121 63.1138C243.109 64.8508 244.454 66.2133 246.157 67.201C247.86 68.1888 249.768 68.6826 251.879 68.6826Z" fill="white"/>
<path d="M205.565 20.8107C203.453 20.8107 201.665 20.0784 200.201 18.6138C198.77 17.1152 198.055 15.31 198.055 13.1982C198.055 11.1206 198.77 9.34942 200.201 7.88482C201.665 6.38617 203.453 5.63684 205.565 5.63684C207.711 5.63684 209.516 6.38617 210.981 7.88482C212.445 9.34942 213.178 11.1206 213.178 13.1982C213.178 15.31 212.445 17.1152 210.981 18.6138C209.516 20.0784 207.711 20.8107 205.565 20.8107ZM213.995 82.8345H197.237V31.7441H213.995V82.8345Z" fill="white"/>
<path d="M184.798 82.8347H170.084L169.216 76.0396C167.138 78.4579 164.618 80.3653 161.654 81.7618C158.691 83.1582 155.49 83.8565 152.049 83.8565C147.485 83.8565 143.415 82.7155 139.839 80.4334C136.297 78.1173 133.504 74.9667 131.46 70.9817C129.416 66.9626 128.395 62.3985 128.395 57.2894C128.395 52.1804 129.416 47.6333 131.46 43.6483C133.504 39.6292 136.297 36.4786 139.839 34.1966C143.415 31.8804 147.485 30.7224 152.049 30.7224C155.217 30.7224 158.163 31.3014 160.888 32.4595C163.613 33.5835 165.997 35.1673 168.041 37.2109V6.19897H184.798V82.8347ZM156.852 68.8359C158.896 68.8359 160.769 68.3931 162.472 67.5075C164.175 66.5879 165.52 65.3277 166.508 63.7268C167.53 62.0919 168.041 60.2357 168.041 58.158V56.2676C168.041 54.224 167.53 52.4188 166.508 50.852C165.52 49.2512 164.175 47.991 162.472 47.0713C160.769 46.1517 158.896 45.6919 156.852 45.6919C154.672 45.6919 152.731 46.2028 151.028 47.2246C149.325 48.2124 147.979 49.5918 146.991 51.3629C146.038 53.1 145.561 55.0755 145.561 57.2894C145.561 59.5034 146.038 61.4959 146.991 63.267C147.979 65.0041 149.325 66.3665 151.028 67.3543C152.731 68.342 154.672 68.8359 156.852 68.8359Z" fill="white"/>
<path fill-rule="evenodd" clip-rule="evenodd" d="M52.3508 10.2273C38.4117 10.2273 27.4262 21.0852 27.4262 34.0979C27.4262 34.4839 27.4357 34.8673 27.4545 35.2479C27.567 37.5288 26.1535 39.6079 23.991 40.342C15.8894 43.0926 10.2615 50.4651 10.2615 58.9416C10.2615 69.6676 19.3257 78.6716 30.8949 78.6716C33.7191 78.6716 36.0086 80.9611 36.0086 83.7853C36.0086 86.6095 33.7191 88.8989 30.8949 88.8989C14.0247 88.8989 0.0341797 75.6572 0.0341797 58.9416C0.0341797 47.0636 7.12572 36.9168 17.2602 32.061C18.3491 14.0281 33.8034 0 52.3508 0C70.8982 0 86.3525 14.028 87.4414 32.061C97.5757 36.9168 104.667 47.0635 104.667 58.9416C104.667 61.7658 102.378 64.0553 99.5538 64.0553C96.7296 64.0553 94.4401 61.7658 94.4401 58.9416C94.4401 50.4651 88.812 43.0926 80.7107 40.342C78.549 39.608 77.1356 37.53 77.2472 35.2498C77.2659 34.8679 77.2754 34.4839 77.2754 34.0979C77.2754 21.0852 66.29 10.2273 52.3508 10.2273Z" fill="white"/>
<path fill-rule="evenodd" clip-rule="evenodd" d="M69.9201 48.3069C70.5838 46.5574 69.4208 44.4739 67.5698 44.7477C64.8001 45.1573 62.0809 45.9897 59.5163 47.2447C56.856 48.5465 54.362 50.3031 52.1506 52.5145C41.3976 63.2675 41.3977 80.7016 52.1509 91.4547C62.904 102.208 80.3381 102.208 91.0911 91.455C93.3025 89.2436 95.0591 86.7496 96.3609 84.0893C97.6159 81.5247 98.4482 78.8055 98.8579 76.0358C99.1317 74.1848 97.0481 73.0217 95.2987 73.6855C93.1671 74.4942 90.9232 74.9192 88.6736 74.9606C83.5195 75.0554 78.3352 73.1363 74.4023 69.2033C70.4693 65.2703 68.5502 60.0861 68.645 54.932C68.6863 52.6824 69.1114 50.4385 69.9201 48.3069ZM58.8365 60.3172C52.6286 67.1089 52.8106 77.6511 59.3826 84.223C65.9545 90.795 76.4966 90.977 83.2883 84.769C77.3874 83.7699 71.7284 80.9928 67.1705 76.435C62.6127 71.8772 59.8357 66.2182 58.8365 60.3172Z" fill="white"/>
</svg>
